<svg xmlns="http://www.w3.org/2000/svg" xmlns:xlink="http://www.w3.org/1999/xlink" width="1300" zoomAndPan="magnify" viewBox="0 0 974.88 262.499992" height="350" preserveAspectRatio="xMidYMid meet" version="1.0"><defs><g/><clipPath id="49a2046aac"><path d="M 3 35 L 86 35 L 86 221.585938 L 3 221.585938 Z M 3 35 " clip-rule="nonzero"/></clipPath><clipPath id="5b12ee5159"><path d="M 72 55 L 186 55 L 186 221.585938 L 72 221.585938 Z M 72 55 " clip-rule="nonzero"/></clipPath></defs><path fill="#c448d6" d="M 162.652344 55.875 C 162.652344 55.875 137.910156 34.941406 105 69.253906 C 103.6875 65.371094 100.019531 62.570312 95.695312 62.570312 C 93.078125 62.570312 90.707031 63.597656 88.949219 65.265625 C 69.457031 24.03125 38.664062 36.429688 38.664062 36.429688 L 31.894531 44.179688 C 31.894531 44.179688 111.316406 46.023438 69.601562 179.351562 C 69.601562 179.351562 74.144531 203.710938 72.355469 220.707031 C 72.355469 220.707031 78.414062 197.75 82.820312 190.636719 C 87.226562 183.523438 88.796875 181.777344 88.796875 181.777344 C 93.519531 46.023438 167.21875 67.132812 167.21875 67.132812 L 162.652344 55.875 " fill-opacity="1" fill-rule="nonzero"/><path fill="#c448d6" d="M 49.460938 34.683594 C 43.003906 34.683594 38.664062 36.429688 38.664062 36.429688 L 31.894531 44.179688 C 31.894531 44.179688 111.316406 46.023438 69.601562 179.351562 C 69.601562 179.351562 74.144531 203.710938 72.355469 220.707031 C 72.355469 220.707031 78.414062 197.75 82.820312 190.636719 C 87.226562 183.523438 88.796875 181.777344 88.796875 181.777344 C 92.398438 78.230469 136.132812 65.945312 156.679688 65.945312 C 163.070312 65.945312 167.21875 67.132812 167.21875 67.132812 L 162.652344 55.875 C 162.652344 55.875 155.175781 49.550781 142.984375 49.550781 C 132.988281 49.550781 119.824219 53.796875 105 69.253906 C 103.6875 65.371094 100.019531 62.570312 95.695312 62.570312 C 93.078125 62.570312 90.707031 63.597656 88.949219 65.265625 C 76.777344 39.519531 60.199219 34.683594 49.460938 34.683594 Z M 49.457031 34.683594 L 49.460938 35.117188 C 56.199219 35.117188 62.582031 36.992188 68.433594 40.6875 C 76.394531 45.714844 83.164062 54.046875 88.554688 65.449219 C 88.613281 65.578125 88.730469 65.667969 88.867188 65.695312 C 88.894531 65.699219 88.921875 65.699219 88.949219 65.699219 C 89.058594 65.699219 89.164062 65.65625 89.246094 65.582031 C 91.003906 63.921875 93.292969 63.007812 95.695312 63.007812 C 99.71875 63.007812 103.292969 65.574219 104.585938 69.390625 C 104.636719 69.535156 104.757812 69.644531 104.90625 69.679688 C 104.9375 69.683594 104.96875 69.6875 105 69.6875 C 105.117188 69.6875 105.230469 69.640625 105.316406 69.554688 C 117.769531 56.570312 130.441406 49.988281 142.984375 49.988281 C 154.199219 49.988281 161.453125 55.476562 162.289062 56.144531 L 166.492188 66.503906 C 164.964844 66.15625 161.460938 65.507812 156.679688 65.507812 C 145.792969 65.507812 129.90625 68.847656 116.054688 84.746094 C 99.261719 104.015625 89.949219 136.601562 88.363281 181.609375 C 87.945312 182.113281 86.253906 184.265625 82.449219 190.40625 C 79.183594 195.679688 75.09375 209.292969 73.109375 216.308594 C 73.804688 200.527344 70.34375 181.007812 70.050781 179.378906 C 79 150.75 83.015625 125.957031 81.992188 105.6875 C 81.15625 89.097656 76.949219 75.417969 69.496094 65.023438 C 61.808594 54.304688 52.003906 49.089844 45.132812 46.601562 C 39.339844 44.503906 34.695312 43.945312 32.808594 43.796875 L 38.917969 36.800781 C 39.582031 36.550781 43.683594 35.117188 49.457031 35.117188 L 49.457031 34.683594 " fill-opacity="1" fill-rule="nonzero"/><g clip-path="url(#49a2046aac)"><path fill="#03989e" d="M 82.367188 159.746094 L 85.082031 144.425781 C 85.082031 144.425781 72.355469 116.847656 40.960938 112.601562 C 40.960938 112.601562 40.738281 112.460938 40.34375 112.191406 C 45.714844 111.933594 50.207031 107.738281 50.6875 102.230469 C 51.210938 96.21875 46.761719 90.921875 40.75 90.398438 C 34.738281 89.875 29.441406 94.324219 28.921875 100.332031 C 28.882812 100.710938 28.875 101.085938 28.878906 101.453125 C 18.65625 88.691406 9.972656 65.585938 40.117188 35.382812 C 40.117188 35.382812 6.371094 40.765625 3.628906 72.292969 C 0.886719 103.820312 45.089844 126.292969 72.347656 221.214844 C 72.347656 221.214844 75.136719 199.507812 70.820312 183.511719 C 60.050781 143.628906 46.476562 127.453125 46.476562 127.453125 C 46.476562 127.453125 62.460938 127.761719 82.367188 159.746094 " fill-opacity="1" fill-rule="nonzero"/><path fill="#03989e" d="M 40.117188 35.382812 C 40.117188 35.382812 6.371094 40.765625 3.628906 72.292969 C 0.886719 103.820312 45.089844 126.292969 72.347656 221.214844 C 72.347656 221.214844 75.136719 199.507812 70.820312 183.511719 C 60.050781 143.628906 46.476562 127.453125 46.476562 127.453125 C 46.476562 127.453125 62.460938 127.761719 82.367188 159.746094 L 85.082031 144.425781 C 85.082031 144.425781 72.355469 116.847656 40.960938 112.601562 C 40.960938 112.601562 40.738281 112.460938 40.34375 112.191406 C 45.714844 111.933594 50.207031 107.738281 50.6875 102.230469 C 51.210938 96.21875 46.761719 90.921875 40.75 90.398438 C 40.429688 90.367188 40.109375 90.355469 39.792969 90.355469 C 34.183594 90.355469 29.414062 94.644531 28.921875 100.332031 C 28.882812 100.710938 28.875 101.085938 28.878906 101.453125 C 18.65625 88.691406 9.972656 65.585938 40.117188 35.382812 Z M 38.800781 36.09375 C 10.324219 65.304688 17.445312 87.878906 28.539062 101.726562 C 28.621094 101.832031 28.75 101.890625 28.878906 101.890625 C 28.925781 101.890625 28.976562 101.882812 29.023438 101.867188 C 29.199219 101.804688 29.316406 101.636719 29.3125 101.449219 C 29.3125 101.066406 29.324219 100.714844 29.351562 100.371094 C 29.582031 97.738281 30.78125 95.3125 32.734375 93.535156 C 34.671875 91.765625 37.179688 90.792969 39.792969 90.792969 C 40.097656 90.792969 40.40625 90.804688 40.710938 90.832031 C 46.476562 91.335938 50.753906 96.429688 50.25 102.191406 C 49.800781 107.394531 45.53125 111.507812 40.320312 111.753906 C 40.132812 111.765625 39.972656 111.890625 39.921875 112.074219 C 39.871094 112.253906 39.941406 112.445312 40.09375 112.550781 C 40.496094 112.824219 40.722656 112.964844 40.730469 112.96875 C 40.78125 113.003906 40.839844 113.023438 40.902344 113.03125 C 56.980469 115.207031 68.023438 123.667969 74.457031 130.382812 C 80.933594 137.140625 84.167969 143.535156 84.628906 144.488281 L 82.136719 158.554688 C 72.050781 142.613281 63.027344 134.90625 57.191406 131.234375 C 50.675781 127.140625 46.652344 127.019531 46.484375 127.015625 C 46.480469 127.015625 46.476562 127.015625 46.476562 127.015625 C 46.308594 127.015625 46.152344 127.113281 46.082031 127.265625 C 46.007812 127.417969 46.03125 127.601562 46.140625 127.734375 C 46.277344 127.894531 59.785156 144.320312 70.398438 183.625 C 73.847656 196.402344 72.710938 213.058594 72.148438 218.964844 C 57.160156 167.832031 37.359375 138.113281 22.847656 116.328125 C 10.800781 98.253906 2.84375 86.308594 4.0625 72.328125 C 4.679688 65.222656 6.957031 58.886719 10.832031 53.492188 C 13.933594 49.175781 18.0625 45.441406 23.101562 42.402344 C 29.644531 38.457031 36.0625 36.710938 38.800781 36.09375 " fill-opacity="1" fill-rule="nonzero"/></g><g clip-path="url(#5b12ee5159)"><path fill="#f63aa9" d="M 82.367188 159.746094 L 84.570312 144.230469 C 84.570312 144.230469 105.398438 122.125 136.515625 128.074219 C 136.515625 128.074219 136.773438 128.011719 137.234375 127.882812 C 132.222656 125.925781 129.292969 120.523438 130.589844 115.148438 C 132.003906 109.28125 137.90625 105.671875 143.769531 107.085938 C 149.636719 108.5 153.246094 114.402344 151.832031 120.265625 C 151.746094 120.632812 151.636719 120.992188 151.515625 121.34375 C 165.261719 112.488281 180.835938 93.335938 161.84375 55.121094 C 161.84375 55.121094 192.132812 70.945312 184.722656 101.710938 C 177.308594 132.472656 128.253906 139.742188 72.253906 221.089844 C 72.253906 221.089844 76.503906 199.621094 85.679688 185.824219 C 108.558594 151.429688 126.570312 140.402344 126.570312 140.402344 C 126.570312 140.402344 111.402344 135.738281 82.367188 159.746094 " fill-opacity="1" fill-rule="nonzero"/><path fill="#f63aa9" d="M 161.84375 55.121094 C 180.835938 93.335938 165.261719 112.488281 151.515625 121.34375 C 151.636719 120.992188 151.746094 120.632812 151.832031 120.265625 C 153.246094 114.402344 149.636719 108.5 143.769531 107.085938 C 142.910156 106.878906 142.050781 106.78125 141.203125 106.78125 C 136.273438 106.78125 131.796875 110.144531 130.589844 115.148438 C 129.292969 120.523438 132.222656 125.925781 137.234375 127.882812 C 136.773438 128.011719 136.515625 128.074219 136.515625 128.074219 C 132.824219 127.367188 129.28125 127.054688 125.898438 127.054688 C 100.753906 127.054688 84.570312 144.230469 84.570312 144.230469 L 82.367188 159.746094 C 103.28125 142.453125 117 140.035156 123.039062 140.035156 C 125.386719 140.035156 126.570312 140.402344 126.570312 140.402344 C 126.570312 140.402344 108.558594 151.429688 85.679688 185.824219 C 76.503906 199.621094 72.253906 221.089844 72.253906 221.089844 C 128.253906 139.742188 177.308594 132.472656 184.722656 101.710938 C 192.132812 70.945312 161.84375 55.121094 161.84375 55.121094 Z M 162.867188 56.214844 C 165.265625 57.671875 170.800781 61.367188 175.75 67.183594 C 179.5625 71.667969 182.292969 76.519531 183.863281 81.597656 C 185.820312 87.941406 185.96875 94.675781 184.296875 101.609375 C 181.007812 115.25 169.671875 124.046875 152.511719 137.359375 C 131.828125 153.40625 103.609375 175.296875 73.15625 219.019531 C 74.5 213.238281 78.714844 197.085938 86.042969 186.066406 C 108.59375 152.167969 126.617188 140.882812 126.800781 140.773438 C 126.945312 140.683594 127.027344 140.515625 127.003906 140.34375 C 126.980469 140.175781 126.863281 140.03125 126.699219 139.984375 C 126.648438 139.96875 125.421875 139.601562 123.039062 139.601562 C 116.785156 139.601562 103.320312 142.101562 82.957031 158.695312 L 84.984375 144.433594 C 85.632812 143.773438 89.570312 139.878906 96.03125 136.019531 C 102.539062 132.128906 113.007812 127.492188 125.898438 127.492188 C 129.386719 127.492188 132.933594 127.832031 136.433594 128.5 C 136.460938 128.507812 136.488281 128.507812 136.515625 128.507812 C 136.550781 128.507812 136.582031 128.503906 136.617188 128.496094 C 136.628906 128.496094 136.890625 128.433594 137.351562 128.300781 C 137.53125 128.25 137.660156 128.089844 137.671875 127.902344 C 137.679688 127.714844 137.566406 127.542969 137.394531 127.472656 C 132.53125 125.582031 129.789062 120.324219 131.015625 115.25 C 132.152344 110.519531 136.34375 107.21875 141.203125 107.21875 C 142.027344 107.21875 142.859375 107.316406 143.671875 107.511719 C 146.390625 108.167969 148.695312 109.84375 150.160156 112.234375 C 151.621094 114.625 152.0625 117.441406 151.40625 120.167969 C 151.324219 120.503906 151.222656 120.851562 151.101562 121.199219 C 151.042969 121.371094 151.097656 121.570312 151.242188 121.683594 C 151.324219 121.746094 151.417969 121.777344 151.515625 121.777344 C 151.597656 121.777344 151.679688 121.753906 151.75 121.707031 C 166.671875 112.101562 180.589844 92.957031 162.867188 56.214844 " fill-opacity="1" fill-rule="nonzero"/></g><g fill="#000000" fill-opacity="1"><g transform="translate(230.350087, 120.775698)"><g><path d="M 6.84375 0 L 6.84375 -83.703125 L 43.5625 -83.703125 C 49.78125 -83.703125 55.226562 -82.582031 59.90625 -80.34375 C 64.59375 -78.101562 68.253906 -74.992188 70.890625 -71.015625 C 73.535156 -67.035156 74.859375 -62.410156 74.859375 -57.140625 C 74.859375 -51.941406 73.535156 -47.351562 70.890625 -43.375 C 68.253906 -39.40625 64.578125 -36.300781 59.859375 -34.0625 C 55.140625 -31.820312 49.671875 -30.703125 43.453125 -30.703125 L 21.375 -30.703125 L 21.375 0 Z M 21.375 -42.390625 L 42.03125 -42.390625 C 47.382812 -42.390625 51.753906 -43.765625 55.140625 -46.515625 C 58.523438 -49.273438 60.21875 -52.816406 60.21875 -57.140625 C 60.21875 -61.546875 58.539062 -65.125 55.1875 -67.875 C 51.84375 -70.632812 47.457031 -72.015625 42.03125 -72.015625 L 21.375 -72.015625 Z M 21.375 -42.390625 "/></g></g></g><g fill="#000000" fill-opacity="1"><g transform="translate(307.567226, 120.775698)"><g><path d="M 5.3125 0 L 5.3125 -87.25 L 18.65625 -87.25 L 18.65625 -50.171875 L 18.765625 -50.171875 C 21.128906 -53.953125 24.160156 -56.882812 27.859375 -58.96875 C 31.554688 -61.050781 35.925781 -62.09375 40.96875 -62.09375 C 47.5 -62.09375 52.632812 -60.144531 56.375 -56.25 C 60.113281 -52.351562 61.984375 -46.941406 61.984375 -40.015625 L 61.984375 0 L 48.640625 0 L 48.640625 -36.828125 C 48.640625 -41.160156 47.457031 -44.585938 45.09375 -47.109375 C 42.738281 -49.628906 39.59375 -50.890625 35.65625 -50.890625 C 30.695312 -50.890625 26.625 -49.273438 23.4375 -46.046875 C 20.25 -42.816406 18.65625 -38.644531 18.65625 -33.53125 L 18.65625 0 Z M 5.3125 0 "/></g></g></g><g fill="#000000" fill-opacity="1"><g transform="translate(374.394288, 120.775698)"><g><path d="M 24.4375 2.125 C 20.113281 2.125 16.257812 1.378906 12.875 -0.109375 C 9.488281 -1.609375 6.847656 -3.675781 4.953125 -6.3125 C 3.066406 -8.945312 2.125 -12.035156 2.125 -15.578125 C 2.125 -20.535156 4.269531 -24.785156 8.5625 -28.328125 C 12.851562 -31.867188 19.679688 -34.191406 29.046875 -35.296875 L 42.390625 -36.828125 C 43.804688 -36.992188 44.945312 -37.46875 45.8125 -38.25 C 46.675781 -39.039062 47.109375 -40.066406 47.109375 -41.328125 C 47.109375 -44.546875 45.789062 -47.097656 43.15625 -48.984375 C 40.519531 -50.878906 37.078125 -51.828125 32.828125 -51.828125 C 29.671875 -51.828125 26.875 -51.21875 24.4375 -50 C 22 -48.78125 20.070312 -47.207031 18.65625 -45.28125 C 17.238281 -43.351562 16.453125 -41.285156 16.296875 -39.078125 L 3.65625 -42.140625 C 4.050781 -45.847656 5.507812 -49.234375 8.03125 -52.296875 C 10.550781 -55.367188 13.9375 -57.828125 18.1875 -59.671875 C 22.4375 -61.523438 27.273438 -62.453125 32.703125 -62.453125 C 38.210938 -62.453125 43.015625 -61.503906 47.109375 -59.609375 C 51.203125 -57.722656 54.410156 -55.050781 56.734375 -51.59375 C 59.054688 -48.132812 60.21875 -44.039062 60.21875 -39.3125 L 60.21875 -12.28125 C 60.21875 -11.019531 60.488281 -10.015625 61.03125 -9.265625 C 61.582031 -8.515625 62.375 -8.140625 63.40625 -8.140625 C 65.050781 -8.140625 66.625 -9.203125 68.125 -11.328125 L 72.71875 -3.78125 C 71.226562 -1.96875 69.203125 -0.53125 66.640625 0.53125 C 64.085938 1.59375 61.550781 2.125 59.03125 2.125 C 55.800781 2.125 53.101562 1.160156 50.9375 -0.765625 C 48.78125 -2.691406 47.582031 -4.992188 47.34375 -7.671875 L 47.109375 -10.15625 L 46.984375 -10.15625 C 45.015625 -6.457031 42.0625 -3.484375 38.125 -1.234375 C 34.195312 1.003906 29.632812 2.125 24.4375 2.125 Z M 28.453125 -8.140625 C 33.804688 -8.140625 38.210938 -9.710938 41.671875 -12.859375 C 45.140625 -16.015625 46.875 -20.109375 46.875 -25.140625 L 46.875 -28.453125 L 31.640625 -26.6875 C 25.503906 -25.976562 21.253906 -24.695312 18.890625 -22.84375 C 16.523438 -21 15.34375 -18.929688 15.34375 -16.640625 C 15.34375 -14.046875 16.582031 -11.976562 19.0625 -10.4375 C 21.539062 -8.90625 24.671875 -8.140625 28.453125 -8.140625 Z M 28.453125 -8.140625 "/></g></g></g><g fill="#000000" fill-opacity="1"><g transform="translate(447.124783, 120.775698)"><g><path d="M 35.1875 -62.21875 C 40.300781 -62.21875 44.53125 -60.484375 47.875 -57.015625 C 51.21875 -53.554688 53.207031 -48.679688 53.84375 -42.390625 L 42.5 -39.078125 C 42.1875 -43.015625 41.101562 -46.046875 39.25 -48.171875 C 37.40625 -50.296875 34.988281 -51.359375 32 -51.359375 C 27.90625 -51.359375 24.65625 -49.722656 22.25 -46.453125 C 19.851562 -43.191406 18.65625 -38.648438 18.65625 -32.828125 L 18.65625 0 L 5.3125 0 L 5.3125 -60.09375 L 16.171875 -60.09375 L 17.953125 -50.40625 L 18.0625 -50.40625 C 19.71875 -54.113281 22.039062 -57.007812 25.03125 -59.09375 C 28.019531 -61.175781 31.40625 -62.21875 35.1875 -62.21875 Z M 35.1875 -62.21875 "/></g></g></g><g fill="#000000" fill-opacity="1"><g transform="translate(503.089506, 120.775698)"><g><path d="M 5.3125 0 L 5.3125 -60.09375 L 16.296875 -60.09375 L 18.0625 -50.171875 L 18.1875 -50.171875 C 19.988281 -53.867188 22.71875 -56.78125 26.375 -58.90625 C 30.039062 -61.03125 34.273438 -62.09375 39.078125 -62.09375 C 43.796875 -62.09375 47.707031 -61.007812 50.8125 -58.84375 C 53.925781 -56.6875 56.191406 -53.5625 57.609375 -49.46875 L 57.734375 -49.46875 C 60.253906 -53.800781 63.441406 -56.988281 67.296875 -59.03125 C 71.148438 -61.070312 75.359375 -62.09375 79.921875 -62.09375 C 86.140625 -62.09375 91 -60.164062 94.5 -56.3125 C 98.007812 -52.457031 99.765625 -47.023438 99.765625 -40.015625 L 99.765625 0 L 86.421875 0 L 86.421875 -37.890625 C 86.421875 -41.828125 85.359375 -44.914062 83.234375 -47.15625 C 81.109375 -49.40625 78.117188 -50.53125 74.265625 -50.53125 C 69.535156 -50.53125 65.832031 -48.914062 63.15625 -45.6875 C 60.488281 -42.457031 59.15625 -38.285156 59.15625 -33.171875 L 59.15625 0 L 45.921875 0 L 45.921875 -37.890625 C 45.921875 -41.828125 44.859375 -44.914062 42.734375 -47.15625 C 40.609375 -49.40625 37.617188 -50.53125 33.765625 -50.53125 C 28.960938 -50.53125 25.242188 -48.914062 22.609375 -45.6875 C 19.972656 -42.457031 18.65625 -38.285156 18.65625 -33.171875 L 18.65625 0 Z M 5.3125 0 "/></g></g></g><g fill="#000000" fill-opacity="1"><g transform="translate(607.698646, 120.775698)"><g><path d="M 24.4375 2.125 C 20.113281 2.125 16.257812 1.378906 12.875 -0.109375 C 9.488281 -1.609375 6.847656 -3.675781 4.953125 -6.3125 C 3.066406 -8.945312 2.125 -12.035156 2.125 -15.578125 C 2.125 -20.535156 4.269531 -24.785156 8.5625 -28.328125 C 12.851562 -31.867188 19.679688 -34.191406 29.046875 -35.296875 L 42.390625 -36.828125 C 43.804688 -36.992188 44.945312 -37.46875 45.8125 -38.25 C 46.675781 -39.039062 47.109375 -40.066406 47.109375 -41.328125 C 47.109375 -44.546875 45.789062 -47.097656 43.15625 -48.984375 C 40.519531 -50.878906 37.078125 -51.828125 32.828125 -51.828125 C 29.671875 -51.828125 26.875 -51.21875 24.4375 -50 C 22 -48.78125 20.070312 -47.207031 18.65625 -45.28125 C 17.238281 -43.351562 16.453125 -41.285156 16.296875 -39.078125 L 3.65625 -42.140625 C 4.050781 -45.847656 5.507812 -49.234375 8.03125 -52.296875 C 10.550781 -55.367188 13.9375 -57.828125 18.1875 -59.671875 C 22.4375 -61.523438 27.273438 -62.453125 32.703125 -62.453125 C 38.210938 -62.453125 43.015625 -61.503906 47.109375 -59.609375 C 51.203125 -57.722656 54.410156 -55.050781 56.734375 -51.59375 C 59.054688 -48.132812 60.21875 -44.039062 60.21875 -39.3125 L 60.21875 -12.28125 C 60.21875 -11.019531 60.488281 -10.015625 61.03125 -9.265625 C 61.582031 -8.515625 62.375 -8.140625 63.40625 -8.140625 C 65.050781 -8.140625 66.625 -9.203125 68.125 -11.328125 L 72.71875 -3.78125 C 71.226562 -1.96875 69.203125 -0.53125 66.640625 0.53125 C 64.085938 1.59375 61.550781 2.125 59.03125 2.125 C 55.800781 2.125 53.101562 1.160156 50.9375 -0.765625 C 48.78125 -2.691406 47.582031 -4.992188 47.34375 -7.671875 L 47.109375 -10.15625 L 46.984375 -10.15625 C 45.015625 -6.457031 42.0625 -3.484375 38.125 -1.234375 C 34.195312 1.003906 29.632812 2.125 24.4375 2.125 Z M 28.453125 -8.140625 C 33.804688 -8.140625 38.210938 -9.710938 41.671875 -12.859375 C 45.140625 -16.015625 46.875 -20.109375 46.875 -25.140625 L 46.875 -28.453125 L 31.640625 -26.6875 C 25.503906 -25.976562 21.253906 -24.695312 18.890625 -22.84375 C 16.523438 -21 15.34375 -18.929688 15.34375 -16.640625 C 15.34375 -14.046875 16.582031 -11.976562 19.0625 -10.4375 C 21.539062 -8.90625 24.671875 -8.140625 28.453125 -8.140625 Z M 28.453125 -8.140625 "/></g></g></g><g fill="#000000" fill-opacity="1"><g transform="translate(680.42914, 120.775698)"><g><path d="M 35.1875 2.359375 C 28.882812 2.359375 23.3125 0.984375 18.46875 -1.765625 C 13.632812 -4.523438 9.859375 -8.34375 7.140625 -13.21875 C 4.421875 -18.101562 3.0625 -23.691406 3.0625 -29.984375 C 3.0625 -36.359375 4.359375 -41.984375 6.953125 -46.859375 C 9.554688 -51.742188 13.160156 -55.5625 17.765625 -58.3125 C 22.367188 -61.070312 27.703125 -62.453125 33.765625 -62.453125 C 38.566406 -62.453125 42.9375 -61.546875 46.875 -59.734375 C 50.8125 -57.929688 54.113281 -55.414062 56.78125 -52.1875 C 59.457031 -48.957031 61.269531 -45.21875 62.21875 -40.96875 L 49.828125 -37.890625 C 48.878906 -42.066406 46.925781 -45.316406 43.96875 -47.640625 C 41.019531 -49.960938 37.695312 -51.125 34 -51.125 C 30.613281 -51.125 27.601562 -50.238281 24.96875 -48.46875 C 22.332031 -46.695312 20.242188 -44.234375 18.703125 -41.078125 C 17.171875 -37.929688 16.40625 -34.234375 16.40625 -29.984375 C 16.40625 -25.816406 17.234375 -22.140625 18.890625 -18.953125 C 20.546875 -15.765625 22.804688 -13.285156 25.671875 -11.515625 C 28.546875 -9.742188 31.796875 -8.859375 35.421875 -8.859375 C 40.066406 -8.859375 44.097656 -10.3125 47.515625 -13.21875 C 50.941406 -16.132812 52.96875 -19.914062 53.59375 -24.5625 L 66.234375 -22.546875 C 65.597656 -17.671875 63.84375 -13.363281 60.96875 -9.625 C 58.101562 -5.882812 54.445312 -2.953125 50 -0.828125 C 45.550781 1.296875 40.613281 2.359375 35.1875 2.359375 Z M 35.1875 2.359375 "/></g></g></g><g fill="#000000" fill-opacity="1"><g transform="translate(748.791065, 120.775698)"><g><path d="M 12.75 -70.015625 C 10.15625 -70.015625 8.066406 -70.78125 6.484375 -72.3125 C 4.910156 -73.84375 4.125 -75.867188 4.125 -78.390625 C 4.125 -80.910156 4.910156 -82.914062 6.484375 -84.40625 C 8.066406 -85.90625 10.15625 -86.65625 12.75 -86.65625 C 15.269531 -86.65625 17.335938 -85.90625 18.953125 -84.40625 C 20.566406 -82.914062 21.375 -80.910156 21.375 -78.390625 C 21.375 -75.867188 20.566406 -73.84375 18.953125 -72.3125 C 17.335938 -70.78125 15.269531 -70.015625 12.75 -70.015625 Z M 6.015625 0 L 6.015625 -60.09375 L 19.25 -60.09375 L 19.25 0 Z M 6.015625 0 "/></g></g></g><g fill="#000000" fill-opacity="1"><g transform="translate(774.293973, 120.775698)"><g><path d="M 40.96875 -62.09375 C 47.5 -62.09375 52.632812 -60.144531 56.375 -56.25 C 60.113281 -52.351562 61.984375 -46.941406 61.984375 -40.015625 L 61.984375 0 L 48.640625 0 L 48.640625 -36.828125 C 48.640625 -41.160156 47.457031 -44.585938 45.09375 -47.109375 C 42.738281 -49.628906 39.59375 -50.890625 35.65625 -50.890625 C 30.695312 -50.890625 26.625 -49.273438 23.4375 -46.046875 C 20.25 -42.816406 18.65625 -38.644531 18.65625 -33.53125 L 18.65625 0 L 5.3125 0 L 5.3125 -60.09375 L 16.890625 -60.09375 L 18.53125 -50.171875 L 18.65625 -50.171875 C 21.09375 -53.953125 24.160156 -56.882812 27.859375 -58.96875 C 31.554688 -61.050781 35.925781 -62.09375 40.96875 -62.09375 Z M 40.96875 -62.09375 "/></g></g></g><g fill="#000000" fill-opacity="1"><g transform="translate(841.121036, 120.775698)"><g><path d="M 33.53125 2.359375 C 27.15625 2.359375 22.054688 0.507812 18.234375 -3.1875 C 14.421875 -6.882812 12.515625 -11.804688 12.515625 -17.953125 L 12.515625 -49.59375 L 0.234375 -49.59375 L 0.234375 -60.09375 L 12.515625 -60.09375 L 12.515625 -77.21875 L 25.859375 -80.171875 L 25.734375 -60.09375 L 51.234375 -60.09375 L 51.234375 -49.59375 L 25.734375 -49.59375 L 25.859375 -19.71875 C 25.859375 -16.40625 26.800781 -13.726562 28.6875 -11.6875 C 30.570312 -9.644531 32.972656 -8.625 35.890625 -8.625 C 38.804688 -8.625 41.363281 -9.488281 43.5625 -11.21875 C 45.769531 -12.945312 47.382812 -15.425781 48.40625 -18.65625 L 54.90625 -11.6875 C 53.40625 -7.351562 50.644531 -3.925781 46.625 -1.40625 C 42.613281 1.101562 38.25 2.359375 33.53125 2.359375 Z M 33.53125 2.359375 "/></g></g></g><g fill="#000000" fill-opacity="1"><g transform="translate(896.849607, 120.775698)"><g><path d="M 24.4375 2.125 C 20.113281 2.125 16.257812 1.378906 12.875 -0.109375 C 9.488281 -1.609375 6.847656 -3.675781 4.953125 -6.3125 C 3.066406 -8.945312 2.125 -12.035156 2.125 -15.578125 C 2.125 -20.535156 4.269531 -24.785156 8.5625 -28.328125 C 12.851562 -31.867188 19.679688 -34.191406 29.046875 -35.296875 L 42.390625 -36.828125 C 43.804688 -36.992188 44.945312 -37.46875 45.8125 -38.25 C 46.675781 -39.039062 47.109375 -40.066406 47.109375 -41.328125 C 47.109375 -44.546875 45.789062 -47.097656 43.15625 -48.984375 C 40.519531 -50.878906 37.078125 -51.828125 32.828125 -51.828125 C 29.671875 -51.828125 26.875 -51.21875 24.4375 -50 C 22 -48.78125 20.070312 -47.207031 18.65625 -45.28125 C 17.238281 -43.351562 16.453125 -41.285156 16.296875 -39.078125 L 3.65625 -42.140625 C 4.050781 -45.847656 5.507812 -49.234375 8.03125 -52.296875 C 10.550781 -55.367188 13.9375 -57.828125 18.1875 -59.671875 C 22.4375 -61.523438 27.273438 -62.453125 32.703125 -62.453125 C 38.210938 -62.453125 43.015625 -61.503906 47.109375 -59.609375 C 51.203125 -57.722656 54.410156 -55.050781 56.734375 -51.59375 C 59.054688 -48.132812 60.21875 -44.039062 60.21875 -39.3125 L 60.21875 -12.28125 C 60.21875 -11.019531 60.488281 -10.015625 61.03125 -9.265625 C 61.582031 -8.515625 62.375 -8.140625 63.40625 -8.140625 C 65.050781 -8.140625 66.625 -9.203125 68.125 -11.328125 L 72.71875 -3.78125 C 71.226562 -1.96875 69.203125 -0.53125 66.640625 0.53125 C 64.085938 1.59375 61.550781 2.125 59.03125 2.125 C 55.800781 2.125 53.101562 1.160156 50.9375 -0.765625 C 48.78125 -2.691406 47.582031 -4.992188 47.34375 -7.671875 L 47.109375 -10.15625 L 46.984375 -10.15625 C 45.015625 -6.457031 42.0625 -3.484375 38.125 -1.234375 C 34.195312 1.003906 29.632812 2.125 24.4375 2.125 Z M 28.453125 -8.140625 C 33.804688 -8.140625 38.210938 -9.710938 41.671875 -12.859375 C 45.140625 -16.015625 46.875 -20.109375 46.875 -25.140625 L 46.875 -28.453125 L 31.640625 -26.6875 C 25.503906 -25.976562 21.253906 -24.695312 18.890625 -22.84375 C 16.523438 -21 15.34375 -18.929688 15.34375 -16.640625 C 15.34375 -14.046875 16.582031 -11.976562 19.0625 -10.4375 C 21.539062 -8.90625 24.671875 -8.140625 28.453125 -8.140625 Z M 28.453125 -8.140625 "/></g></g></g><g fill="#03989e" fill-opacity="1"><g transform="translate(269.801838, 201.355383)"><g/></g></g><g fill="#03989e" fill-opacity="1"><g transform="translate(288.548031, 201.355383)"><g/></g></g><g fill="#03989e" fill-opacity="1"><g transform="translate(307.294224, 201.355383)"><g/></g></g><g fill="#03989e" fill-opacity="1"><g transform="translate(326.086192, 201.355383)"><g><path d="M 30.84375 7.515625 C 28.363281 6.273438 26.023438 4.710938 23.828125 2.828125 C 21.628906 0.941406 19.640625 -1.046875 17.859375 -3.140625 C 16.078125 -5.234375 14.539062 -7.222656 13.25 -9.109375 C 11.957031 -10.992188 10.953125 -12.582031 10.234375 -13.875 C 9.867188 -13.507812 9.519531 -13.195312 9.1875 -12.9375 C 8.851562 -12.6875 8.476562 -12.351562 8.0625 -11.9375 C 6.613281 -7.851562 5.59375 -4.414062 5 -1.625 C 4.40625 1.164062 3.769531 3.773438 3.09375 6.203125 C 2.988281 6.609375 2.640625 6.835938 2.046875 6.890625 C 1.453125 6.941406 0.796875 6.863281 0.078125 6.65625 C -0.640625 6.457031 -1.242188 6.160156 -1.734375 5.765625 C -2.234375 5.378906 -2.457031 4.929688 -2.40625 4.421875 C -2.09375 1.523438 -1.625 -0.953125 -1 -3.015625 C -0.382812 -5.085938 0.179688 -6.925781 0.703125 -8.53125 C 1.421875 -10.644531 2.113281 -12.757812 2.78125 -14.875 C 3.457031 -17 4.132812 -19.09375 4.8125 -21.15625 C 6 -24.820312 7.117188 -28.503906 8.171875 -32.203125 C 9.234375 -35.898438 10.332031 -39.609375 11.46875 -43.328125 C 11.882812 -44.671875 12.363281 -46.128906 12.90625 -47.703125 C 13.445312 -49.273438 14.078125 -50.992188 14.796875 -52.859375 C 15.109375 -53.628906 15.675781 -53.960938 16.5 -53.859375 C 17.332031 -53.753906 18.125 -53.457031 18.875 -52.96875 C 19.625 -52.476562 20.023438 -52 20.078125 -51.53125 C 20.128906 -51.226562 20 -50.632812 19.6875 -49.75 C 19.375 -48.875 19.007812 -47.945312 18.59375 -46.96875 C 18.1875 -45.988281 17.851562 -45.160156 17.59375 -44.484375 C 16.457031 -40.710938 15.359375 -37.195312 14.296875 -33.9375 C 13.234375 -30.6875 12.300781 -27.925781 11.5 -25.65625 C 10.707031 -23.382812 10.15625 -21.78125 9.84375 -20.84375 C 11.289062 -21.414062 12.835938 -22.296875 14.484375 -23.484375 C 16.140625 -24.671875 17.820312 -26.015625 19.53125 -27.515625 C 21.238281 -29.015625 22.851562 -30.507812 24.375 -32 C 25.894531 -33.5 27.234375 -34.851562 28.390625 -36.0625 C 29.554688 -37.28125 30.398438 -38.203125 30.921875 -38.828125 C 31.640625 -39.703125 32.476562 -40.8125 33.4375 -42.15625 C 34.394531 -43.5 35.234375 -44.972656 35.953125 -46.578125 C 36.265625 -47.191406 36.664062 -47.382812 37.15625 -47.15625 C 37.644531 -46.925781 38.132812 -46.5 38.625 -45.875 C 39.125 -45.257812 39.5 -44.664062 39.75 -44.09375 C 40.269531 -43.0625 40.285156 -42.128906 39.796875 -41.296875 C 39.304688 -40.472656 38.75 -39.625 38.125 -38.75 C 36.0625 -36.164062 33.867188 -33.722656 31.546875 -31.421875 C 29.222656 -29.128906 26.625 -26.78125 23.75 -24.375 C 20.882812 -21.96875 17.566406 -19.296875 13.796875 -16.359375 C 15.753906 -13.617188 17.390625 -11.28125 18.703125 -9.34375 C 20.023438 -7.40625 21.332031 -5.765625 22.625 -4.421875 C 24.125 -2.921875 25.726562 -1.421875 27.4375 0.078125 C 29.144531 1.578125 30.953125 2.84375 32.859375 3.875 C 33.378906 4.082031 34.113281 4.3125 35.0625 4.5625 C 36.019531 4.820312 36.847656 5.117188 37.546875 5.453125 C 38.242188 5.796875 38.460938 6.226562 38.203125 6.75 C 37.691406 7.726562 36.929688 8.28125 35.921875 8.40625 C 34.910156 8.539062 33.925781 8.476562 32.96875 8.21875 C 32.019531 7.957031 31.3125 7.722656 30.84375 7.515625 Z M 30.84375 7.515625 "/></g></g></g><g fill="#03989e" fill-opacity="1"><g transform="translate(358.620233, 201.355383)"><g><path d="M 10.46875 1.15625 C 9.226562 1.15625 7.984375 0.894531 6.734375 0.375 C 5.492188 -0.132812 4.4375 -0.722656 3.5625 -1.390625 C 2.269531 -2.472656 1.484375 -3.546875 1.203125 -4.609375 C 0.921875 -5.671875 0.78125 -6.820312 0.78125 -8.0625 C 0.78125 -10.175781 1.269531 -12.226562 2.25 -14.21875 C 3.226562 -16.207031 4.492188 -17.976562 6.046875 -19.53125 C 7.597656 -21.082031 9.195312 -22.304688 10.84375 -23.203125 C 12.5 -24.109375 14.023438 -24.5625 15.421875 -24.5625 C 16.296875 -24.5625 17.125 -24.332031 17.90625 -23.875 C 18.519531 -23.507812 18.96875 -23.109375 19.25 -22.671875 C 19.539062 -22.234375 19.738281 -21.675781 19.84375 -21 C 19.894531 -20.789062 19.921875 -20.582031 19.921875 -20.375 C 19.921875 -20.175781 19.921875 -19.945312 19.921875 -19.6875 C 19.921875 -19.164062 19.878906 -18.59375 19.796875 -17.96875 C 19.722656 -17.351562 19.554688 -16.710938 19.296875 -16.046875 C 18.773438 -14.441406 17.851562 -12.875 16.53125 -11.34375 C 15.21875 -9.820312 13.554688 -8.859375 11.546875 -8.453125 C 11.335938 -8.398438 11.003906 -8.375 10.546875 -8.375 C 9.867188 -8.375 9.101562 -8.488281 8.25 -8.71875 C 7.394531 -8.945312 6.632812 -9.269531 5.96875 -9.6875 C 5.601562 -8.550781 5.429688 -7.453125 5.453125 -6.390625 C 5.484375 -5.335938 5.8125 -4.445312 6.4375 -3.71875 C 7.050781 -3.050781 8.132812 -2.71875 9.6875 -2.71875 C 11.644531 -2.71875 13.90625 -3.21875 16.46875 -4.21875 C 19.03125 -5.226562 21.578125 -7 24.109375 -9.53125 C 24.359375 -9.789062 24.40625 -9.378906 24.25 -8.296875 C 24.101562 -7.210938 23.457031 -6 22.3125 -4.65625 C 21.019531 -3.101562 19.25 -1.742188 17 -0.578125 C 14.757812 0.578125 12.582031 1.15625 10.46875 1.15625 Z M 7.75 -12.9375 C 8.46875 -12.582031 9.160156 -12.609375 9.828125 -13.015625 C 10.503906 -13.429688 11.078125 -13.847656 11.546875 -14.265625 C 11.753906 -14.421875 12.128906 -14.769531 12.671875 -15.3125 C 13.210938 -15.851562 13.789062 -16.472656 14.40625 -17.171875 C 15.03125 -17.867188 15.535156 -18.523438 15.921875 -19.140625 C 16.304688 -19.765625 16.425781 -20.203125 16.28125 -20.453125 C 16.125 -20.710938 15.707031 -20.660156 15.03125 -20.296875 C 14.363281 -19.941406 13.5625 -19.363281 12.625 -18.5625 C 11.695312 -17.757812 10.796875 -16.867188 9.921875 -15.890625 C 9.046875 -14.910156 8.320312 -13.925781 7.75 -12.9375 Z M 7.75 -12.9375 "/></g></g></g><g fill="#03989e" fill-opacity="1"><g transform="translate(381.161933, 201.355383)"><g><path d="M 10.46875 1.15625 C 9.226562 1.15625 7.984375 0.894531 6.734375 0.375 C 5.492188 -0.132812 4.4375 -0.722656 3.5625 -1.390625 C 2.269531 -2.472656 1.484375 -3.546875 1.203125 -4.609375 C 0.921875 -5.671875 0.78125 -6.820312 0.78125 -8.0625 C 0.78125 -10.175781 1.269531 -12.226562 2.25 -14.21875 C 3.226562 -16.207031 4.492188 -17.976562 6.046875 -19.53125 C 7.597656 -21.082031 9.195312 -22.304688 10.84375 -23.203125 C 12.5 -24.109375 14.023438 -24.5625 15.421875 -24.5625 C 16.296875 -24.5625 17.125 -24.332031 17.90625 -23.875 C 18.519531 -23.507812 18.96875 -23.109375 19.25 -22.671875 C 19.539062 -22.234375 19.738281 -21.675781 19.84375 -21 C 19.894531 -20.789062 19.921875 -20.582031 19.921875 -20.375 C 19.921875 -20.175781 19.921875 -19.945312 19.921875 -19.6875 C 19.921875 -19.164062 19.878906 -18.59375 19.796875 -17.96875 C 19.722656 -17.351562 19.554688 -16.710938 19.296875 -16.046875 C 18.773438 -14.441406 17.851562 -12.875 16.53125 -11.34375 C 15.21875 -9.820312 13.554688 -8.859375 11.546875 -8.453125 C 11.335938 -8.398438 11.003906 -8.375 10.546875 -8.375 C 9.867188 -8.375 9.101562 -8.488281 8.25 -8.71875 C 7.394531 -8.945312 6.632812 -9.269531 5.96875 -9.6875 C 5.601562 -8.550781 5.429688 -7.453125 5.453125 -6.390625 C 5.484375 -5.335938 5.8125 -4.445312 6.4375 -3.71875 C 7.050781 -3.050781 8.132812 -2.71875 9.6875 -2.71875 C 11.644531 -2.71875 13.90625 -3.21875 16.46875 -4.21875 C 19.03125 -5.226562 21.578125 -7 24.109375 -9.53125 C 24.359375 -9.789062 24.40625 -9.378906 24.25 -8.296875 C 24.101562 -7.210938 23.457031 -6 22.3125 -4.65625 C 21.019531 -3.101562 19.25 -1.742188 17 -0.578125 C 14.757812 0.578125 12.582031 1.15625 10.46875 1.15625 Z M 7.75 -12.9375 C 8.46875 -12.582031 9.160156 -12.609375 9.828125 -13.015625 C 10.503906 -13.429688 11.078125 -13.847656 11.546875 -14.265625 C 11.753906 -14.421875 12.128906 -14.769531 12.671875 -15.3125 C 13.210938 -15.851562 13.789062 -16.472656 14.40625 -17.171875 C 15.03125 -17.867188 15.535156 -18.523438 15.921875 -19.140625 C 16.304688 -19.765625 16.425781 -20.203125 16.28125 -20.453125 C 16.125 -20.710938 15.707031 -20.660156 15.03125 -20.296875 C 14.363281 -19.941406 13.5625 -19.363281 12.625 -18.5625 C 11.695312 -17.757812 10.796875 -16.867188 9.921875 -15.890625 C 9.046875 -14.910156 8.320312 -13.925781 7.75 -12.9375 Z M 7.75 -12.9375 "/></g></g></g><g fill="#03989e" fill-opacity="1"><g transform="translate(403.703631, 201.355383)"><g><path d="M -0.234375 30 C 0.0234375 30.40625 -0.0703125 30.695312 -0.53125 30.875 C -1 31.0625 -1.632812 31.0625 -2.4375 30.875 C -3.238281 30.695312 -4.023438 30.285156 -4.796875 29.640625 C -5.578125 28.992188 -6.125 28.023438 -6.4375 26.734375 C -6.84375 25.128906 -6.863281 23.410156 -6.5 21.578125 C -6.144531 19.742188 -5.734375 17.925781 -5.265625 16.125 C -4.234375 11.9375 -3.019531 7.773438 -1.625 3.640625 C -0.226562 -0.492188 1.21875 -4.601562 2.71875 -8.6875 C 3.59375 -11.0625 4.484375 -13.410156 5.390625 -15.734375 C 6.296875 -18.054688 7.238281 -20.378906 8.21875 -22.703125 C 9.09375 -24.878906 9.800781 -26.441406 10.34375 -27.390625 C 10.882812 -28.347656 11.390625 -28.929688 11.859375 -29.140625 C 12.273438 -29.398438 12.703125 -29.488281 13.140625 -29.40625 C 13.578125 -29.332031 14.234375 -29.164062 15.109375 -28.90625 C 15.578125 -28.800781 15.898438 -28.453125 16.078125 -27.859375 C 16.265625 -27.265625 16.125 -26.53125 15.65625 -25.65625 C 14.414062 -23.28125 13.351562 -21.070312 12.46875 -19.03125 C 11.59375 -16.988281 10.5625 -14.675781 9.375 -12.09375 C 10.5625 -13.738281 11.425781 -14.859375 11.96875 -15.453125 C 12.507812 -16.054688 12.960938 -16.535156 13.328125 -16.890625 C 13.640625 -17.253906 14.195312 -17.847656 15 -18.671875 C 15.800781 -19.503906 16.742188 -20.359375 17.828125 -21.234375 C 18.910156 -22.109375 20.019531 -22.753906 21.15625 -23.171875 C 21.726562 -23.378906 22.347656 -23.484375 23.015625 -23.484375 C 24.203125 -23.484375 25.257812 -23.09375 26.1875 -22.3125 C 27.125 -21.539062 27.820312 -20.546875 28.28125 -19.328125 C 28.75 -18.117188 28.878906 -16.894531 28.671875 -15.65625 C 28.617188 -14.675781 28.226562 -13.332031 27.5 -11.625 C 26.78125 -9.914062 25.8125 -8.171875 24.59375 -6.390625 C 23.382812 -4.609375 21.992188 -3.109375 20.421875 -1.890625 C 18.847656 -0.679688 17.207031 -0.078125 15.5 -0.078125 C 14.207031 -0.078125 13.1875 -0.453125 12.4375 -1.203125 C 11.6875 -1.953125 11.257812 -2.675781 11.15625 -3.375 C 11.050781 -4.070312 11.3125 -4.34375 11.9375 -4.1875 C 13.539062 -3.875 15.101562 -4.222656 16.625 -5.234375 C 18.144531 -6.242188 19.320312 -7.394531 20.15625 -8.6875 C 20.5625 -9.351562 21.070312 -10.265625 21.6875 -11.421875 C 22.3125 -12.585938 22.859375 -13.816406 23.328125 -15.109375 C 23.796875 -16.398438 24.003906 -17.507812 23.953125 -18.4375 C 23.953125 -19.21875 23.769531 -19.609375 23.40625 -19.609375 C 22.582031 -19.609375 21.675781 -19.207031 20.6875 -18.40625 C 19.707031 -17.601562 18.9375 -16.96875 18.375 -16.5 C 14.957031 -13.40625 11.84375 -9.738281 9.03125 -5.5 C 6.21875 -1.257812 4.140625 3.078125 2.796875 7.515625 C 2.066406 9.890625 1.351562 12.226562 0.65625 14.53125 C -0.0390625 16.832031 -0.59375 19.195312 -1 21.625 C -1.257812 23.070312 -1.398438 24.503906 -1.421875 25.921875 C -1.453125 27.347656 -1.054688 28.707031 -0.234375 30 Z M -0.234375 30 "/></g></g></g><g fill="#03989e" fill-opacity="1"><g transform="translate(436.470068, 201.355383)"><g><path d="M 11.46875 -27.984375 C 10.90625 -27.984375 10.441406 -28.34375 10.078125 -29.0625 C 9.765625 -29.632812 9.609375 -30.59375 9.609375 -31.9375 C 9.609375 -32.550781 9.722656 -33.347656 9.953125 -34.328125 C 10.191406 -35.316406 10.554688 -36.195312 11.046875 -36.96875 C 11.535156 -37.738281 12.140625 -38.125 12.859375 -38.125 C 13.585938 -38.125 14.390625 -37.6875 15.265625 -36.8125 C 15.734375 -36.34375 15.96875 -35.566406 15.96875 -34.484375 C 15.96875 -33.867188 15.734375 -33.039062 15.265625 -32 C 14.796875 -30.96875 14.210938 -30.039062 13.515625 -29.21875 C 12.828125 -28.394531 12.144531 -27.984375 11.46875 -27.984375 Z M 9.765625 0.9375 C 8.316406 1.03125 6.867188 0.738281 5.421875 0.0625 C 3.972656 -0.601562 2.863281 -1.785156 2.09375 -3.484375 C 1.320312 -5.191406 1.21875 -7.519531 1.78125 -10.46875 C 2.039062 -11.757812 2.375 -13.085938 2.78125 -14.453125 C 3.195312 -15.816406 3.613281 -17.039062 4.03125 -18.125 C 4.445312 -19.21875 4.753906 -20.019531 4.953125 -20.53125 C 5.472656 -21.769531 5.953125 -22.503906 6.390625 -22.734375 C 6.828125 -22.972656 7.460938 -22.960938 8.296875 -22.703125 C 9.640625 -22.398438 10.425781 -22.015625 10.65625 -21.546875 C 10.882812 -21.078125 10.875 -20.5625 10.625 -20 C 9.070312 -16.738281 7.984375 -13.984375 7.359375 -11.734375 C 6.742188 -9.492188 6.4375 -7.570312 6.4375 -5.96875 C 6.4375 -5.757812 6.488281 -5.359375 6.59375 -4.765625 C 6.695312 -4.171875 7.003906 -3.71875 7.515625 -3.40625 C 8.390625 -2.894531 9.421875 -2.789062 10.609375 -3.09375 C 11.804688 -3.40625 13 -3.910156 14.1875 -4.609375 C 15.375 -5.304688 16.414062 -5.960938 17.3125 -6.578125 C 18.21875 -7.203125 18.828125 -7.59375 19.140625 -7.75 C 19.660156 -8.0625 19.828125 -7.984375 19.640625 -7.515625 C 19.460938 -7.046875 19.0625 -6.382812 18.4375 -5.53125 C 17.820312 -4.6875 17.035156 -3.769531 16.078125 -2.78125 C 15.117188 -1.800781 14.097656 -0.960938 13.015625 -0.265625 C 11.929688 0.429688 10.847656 0.832031 9.765625 0.9375 Z M 9.765625 0.9375 "/></g></g></g><g fill="#03989e" fill-opacity="1"><g transform="translate(454.674042, 201.355383)"><g><path d="M 26.125 0.9375 C 25.238281 0.9375 24.160156 0.6875 22.890625 0.1875 C 21.628906 -0.300781 20.640625 -1.113281 19.921875 -2.25 C 19.242188 -3.332031 18.890625 -5.046875 18.859375 -7.390625 C 18.835938 -9.742188 19.269531 -12.472656 20.15625 -15.578125 C 19.84375 -15.367188 19.320312 -14.914062 18.59375 -14.21875 C 17.875 -13.519531 17.113281 -12.742188 16.3125 -11.890625 C 15.507812 -11.046875 14.796875 -10.300781 14.171875 -9.65625 C 13.554688 -9.007812 13.195312 -8.632812 13.09375 -8.53125 C 12.269531 -7.695312 11.273438 -6.660156 10.109375 -5.421875 C 8.953125 -4.179688 8.085938 -3.203125 7.515625 -2.484375 C 7.003906 -1.804688 6.4375 -1.101562 5.8125 -0.375 C 5.1875 0.34375 4.515625 0.703125 3.796875 0.703125 C 3.128906 0.703125 2.429688 0.257812 1.703125 -0.625 C 1.390625 -1.03125 1.144531 -1.398438 0.96875 -1.734375 C 0.789062 -2.078125 0.703125 -2.503906 0.703125 -3.015625 C 0.703125 -3.898438 1.253906 -6.046875 2.359375 -9.453125 C 3.472656 -12.859375 4.859375 -17.71875 6.515625 -24.03125 C 6.867188 -25.425781 7.28125 -26.171875 7.75 -26.265625 C 8.21875 -26.367188 8.96875 -26.140625 10 -25.578125 C 11.1875 -24.953125 11.84375 -24.394531 11.96875 -23.90625 C 12.101562 -23.414062 12.09375 -22.8125 11.9375 -22.09375 C 11.832031 -21.832031 11.570312 -21.09375 11.15625 -19.875 C 10.75 -18.664062 10.257812 -17.257812 9.6875 -15.65625 C 9.113281 -14.050781 8.519531 -12.445312 7.90625 -10.84375 C 8.9375 -11.882812 9.773438 -12.726562 10.421875 -13.375 C 11.066406 -14.019531 11.75 -14.691406 12.46875 -15.390625 C 13.195312 -16.085938 14.128906 -17.003906 15.265625 -18.140625 C 15.835938 -18.703125 16.5625 -19.304688 17.4375 -19.953125 C 18.3125 -20.597656 19.1875 -21.164062 20.0625 -21.65625 C 20.945312 -22.144531 21.675781 -22.390625 22.25 -22.390625 C 22.863281 -22.390625 23.609375 -22.039062 24.484375 -21.34375 C 25.367188 -20.65625 25.8125 -19.921875 25.8125 -19.140625 C 25.8125 -18.367188 25.691406 -17.554688 25.453125 -16.703125 C 25.222656 -15.847656 25.03125 -15.0625 24.875 -14.34375 C 24.71875 -13.664062 24.507812 -12.691406 24.25 -11.421875 C 24 -10.160156 23.875 -8.882812 23.875 -7.59375 C 23.875 -6.300781 24.023438 -5.140625 24.328125 -4.109375 C 24.640625 -3.078125 25.390625 -2.5625 26.578125 -2.5625 C 27.660156 -2.5625 28.832031 -2.972656 30.09375 -3.796875 C 31.363281 -4.617188 32.390625 -5.265625 33.171875 -5.734375 C 33.378906 -5.835938 33.753906 -6.082031 34.296875 -6.46875 C 34.835938 -6.851562 35.414062 -7.175781 36.03125 -7.4375 C 36.394531 -7.59375 36.367188 -7.15625 35.953125 -6.125 C 35.546875 -5.09375 34.898438 -4.132812 34.015625 -3.25 C 32.929688 -2.113281 31.960938 -1.234375 31.109375 -0.609375 C 30.265625 0.00390625 29.269531 0.441406 28.125 0.703125 C 27.507812 0.859375 26.84375 0.9375 26.125 0.9375 Z M 26.125 0.9375 "/></g></g></g><g fill="#03989e" fill-opacity="1"><g transform="translate(488.989665, 201.355383)"><g><path d="M 0.546875 31.390625 C -2.347656 31.390625 -4.738281 30.367188 -6.625 28.328125 C -8.507812 26.285156 -9.453125 23.738281 -9.453125 20.6875 C -9.453125 20.070312 -9.375 19.347656 -9.21875 18.515625 C -9.0625 17.691406 -8.867188 17.0625 -8.640625 16.625 C -8.410156 16.1875 -8.21875 16.300781 -8.0625 16.96875 C -7.28125 19.757812 -6.253906 22.046875 -4.984375 23.828125 C -3.722656 25.609375 -1.90625 26.5 0.46875 26.5 C 2.21875 26.5 3.867188 25.90625 5.421875 24.71875 C 6.972656 23.53125 8.429688 21.953125 9.796875 19.984375 C 11.171875 18.023438 12.410156 15.859375 13.515625 13.484375 C 14.628906 11.109375 15.613281 8.71875 16.46875 6.3125 C 17.320312 3.914062 18.03125 1.679688 18.59375 -0.390625 C 18.75 -0.898438 18.992188 -1.878906 19.328125 -3.328125 C 19.671875 -4.773438 20.070312 -6.328125 20.53125 -7.984375 C 20.632812 -8.398438 20.765625 -8.96875 20.921875 -9.6875 C 21.078125 -10.40625 21.179688 -10.972656 21.234375 -11.390625 C 20.515625 -10.304688 19.554688 -9.015625 18.359375 -7.515625 C 17.171875 -6.015625 15.894531 -4.550781 14.53125 -3.125 C 13.164062 -1.707031 11.835938 -0.523438 10.546875 0.421875 C 9.253906 1.378906 8.140625 1.859375 7.203125 1.859375 C 6.066406 1.859375 4.957031 1.457031 3.875 0.65625 C 2.789062 -0.144531 2.09375 -1.035156 1.78125 -2.015625 C 1.570312 -2.585938 1.46875 -3.285156 1.46875 -4.109375 C 1.46875 -5.609375 1.800781 -7.207031 2.46875 -8.90625 C 3.144531 -10.613281 3.769531 -12.035156 4.34375 -13.171875 C 5.269531 -15.085938 6.507812 -16.972656 8.0625 -18.828125 C 9.613281 -20.691406 11.265625 -22.191406 13.015625 -23.328125 C 14.253906 -24.097656 15.414062 -24.484375 16.5 -24.484375 C 17.644531 -24.484375 18.796875 -24.1875 19.953125 -23.59375 C 21.117188 -23 22.191406 -22.1875 23.171875 -21.15625 C 23.742188 -21.726562 24.222656 -22.113281 24.609375 -22.3125 C 24.992188 -22.519531 25.367188 -22.675781 25.734375 -22.78125 C 25.992188 -22.882812 26.421875 -22.796875 27.015625 -22.515625 C 27.609375 -22.234375 28.054688 -21.960938 28.359375 -21.703125 C 29.140625 -21.078125 29.53125 -20.351562 29.53125 -19.53125 C 29.53125 -18.550781 29.101562 -17.515625 28.25 -16.421875 C 27.394531 -15.335938 26.785156 -14.28125 26.421875 -13.25 C 26.066406 -11.5 25.628906 -9.5 25.109375 -7.25 C 24.585938 -5 24.054688 -2.800781 23.515625 -0.65625 C 22.972656 1.488281 22.484375 3.359375 22.046875 4.953125 C 21.609375 6.554688 21.3125 7.59375 21.15625 8.0625 C 20.382812 10.226562 19.390625 12.65625 18.171875 15.34375 C 16.960938 18.03125 15.503906 20.585938 13.796875 23.015625 C 12.085938 25.441406 10.132812 27.441406 7.9375 29.015625 C 5.75 30.597656 3.285156 31.390625 0.546875 31.390625 Z M 6.4375 -3.09375 C 6.945312 -3.09375 7.707031 -3.476562 8.71875 -4.25 C 9.726562 -5.03125 10.828125 -6.023438 12.015625 -7.234375 C 13.203125 -8.453125 14.390625 -9.742188 15.578125 -11.109375 C 16.765625 -12.484375 17.820312 -13.800781 18.75 -15.0625 C 19.6875 -16.332031 20.382812 -17.359375 20.84375 -18.140625 C 19.757812 -19.015625 18.9375 -19.453125 18.375 -19.453125 C 17.59375 -19.453125 16.738281 -19.078125 15.8125 -18.328125 C 14.882812 -17.578125 14.03125 -16.757812 13.25 -15.875 C 12.476562 -15 11.910156 -14.332031 11.546875 -13.875 C 11.335938 -13.5625 10.921875 -12.988281 10.296875 -12.15625 C 9.679688 -11.332031 9.035156 -10.390625 8.359375 -9.328125 C 7.691406 -8.273438 7.113281 -7.257812 6.625 -6.28125 C 6.132812 -5.300781 5.890625 -4.5 5.890625 -3.875 C 5.890625 -3.71875 5.925781 -3.546875 6 -3.359375 C 6.082031 -3.179688 6.226562 -3.09375 6.4375 -3.09375 Z M 6.4375 -3.09375 "/></g></g></g><g fill="#03989e" fill-opacity="1"><g transform="translate(520.516733, 201.355383)"><g/></g></g><g fill="#03989e" fill-opacity="1"><g transform="translate(539.262929, 201.355383)"><g><path d="M 24.640625 0.9375 C 24.234375 1.394531 23.753906 1.546875 23.203125 1.390625 C 22.660156 1.234375 22.222656 0.84375 21.890625 0.21875 C 21.554688 -0.394531 21.492188 -1.140625 21.703125 -2.015625 C 22.523438 -4.753906 23.164062 -7.050781 23.625 -8.90625 C 24.09375 -10.769531 24.535156 -12.476562 24.953125 -14.03125 C 25.367188 -15.582031 25.882812 -17.179688 26.5 -18.828125 C 25.570312 -18.773438 24.269531 -18.617188 22.59375 -18.359375 C 20.914062 -18.109375 19.207031 -17.8125 17.46875 -17.46875 C 15.738281 -17.132812 14.28125 -16.789062 13.09375 -16.4375 C 11.445312 -12.96875 10.25 -10.003906 9.5 -7.546875 C 8.75 -5.097656 8.320312 -2.816406 8.21875 -0.703125 C 8.113281 0.484375 7.695312 1.0625 6.96875 1.03125 C 6.25 1.007812 5.566406 0.457031 4.921875 -0.625 C 4.273438 -1.707031 4.003906 -3.203125 4.109375 -5.109375 C 4.210938 -5.890625 4.457031 -6.847656 4.84375 -7.984375 C 5.226562 -9.117188 5.640625 -10.289062 6.078125 -11.5 C 6.523438 -12.71875 6.875 -13.765625 7.125 -14.640625 C 6.300781 -14.285156 5.59375 -13.960938 5 -13.671875 C 4.40625 -13.390625 3.820312 -13.195312 3.25 -13.09375 C 2.894531 -12.988281 2.570312 -13.078125 2.28125 -13.359375 C 2 -13.648438 1.675781 -14.234375 1.3125 -15.109375 C 0.800781 -15.992188 0.644531 -16.71875 0.84375 -17.28125 C 1.050781 -17.851562 1.460938 -18.332031 2.078125 -18.71875 C 2.703125 -19.101562 3.351562 -19.453125 4.03125 -19.765625 C 4.90625 -20.171875 5.804688 -20.476562 6.734375 -20.6875 C 7.671875 -20.894531 8.601562 -21.179688 9.53125 -21.546875 C 10.40625 -24.023438 11.140625 -26.164062 11.734375 -27.96875 C 12.328125 -29.78125 12.867188 -31.488281 13.359375 -33.09375 C 13.859375 -34.695312 14.363281 -36.425781 14.875 -38.28125 C 15.238281 -39.3125 15.664062 -40.691406 16.15625 -42.421875 C 16.644531 -44.160156 17.125 -45.957031 17.59375 -47.8125 C 17.75 -48.4375 18.082031 -48.695312 18.59375 -48.59375 C 19.113281 -48.488281 19.671875 -48.164062 20.265625 -47.625 C 20.859375 -47.082031 21.359375 -46.460938 21.765625 -45.765625 C 22.179688 -45.066406 22.34375 -44.484375 22.25 -44.015625 C 21.832031 -41.796875 21.039062 -39.003906 19.875 -35.640625 C 18.71875 -32.285156 17.15625 -27.84375 15.1875 -22.3125 C 16.019531 -22.414062 17.128906 -22.582031 18.515625 -22.8125 C 19.910156 -23.050781 21.4375 -23.273438 23.09375 -23.484375 C 24.75 -23.691406 26.351562 -23.820312 27.90625 -23.875 C 28.832031 -26.757812 29.578125 -29.039062 30.140625 -30.71875 C 30.710938 -32.40625 31.175781 -33.722656 31.53125 -34.671875 C 31.894531 -35.628906 32.207031 -36.472656 32.46875 -37.203125 C 33.09375 -38.703125 33.6875 -40.160156 34.25 -41.578125 C 34.820312 -42.992188 35.34375 -44.476562 35.8125 -46.03125 C 36.164062 -46.8125 36.578125 -47.753906 37.046875 -48.859375 C 37.515625 -49.972656 38.003906 -51.175781 38.515625 -52.46875 C 38.828125 -53.1875 39.332031 -53.414062 40.03125 -53.15625 C 40.726562 -52.90625 41.375 -52.441406 41.96875 -51.765625 C 42.5625 -51.097656 42.859375 -50.476562 42.859375 -49.90625 C 42.910156 -49.445312 42.46875 -48.144531 41.53125 -46 C 40.601562 -43.851562 39.40625 -40.972656 37.9375 -37.359375 C 36.46875 -33.742188 34.984375 -29.398438 33.484375 -24.328125 C 35.648438 -24.273438 37.210938 -24.003906 38.171875 -23.515625 C 39.128906 -23.023438 39.679688 -22.535156 39.828125 -22.046875 C 39.984375 -21.554688 39.882812 -21.285156 39.53125 -21.234375 C 38.238281 -21.023438 37.0625 -20.851562 36 -20.71875 C 34.9375 -20.59375 33.734375 -20.328125 32.390625 -19.921875 C 31.359375 -17.234375 30.425781 -14.453125 29.59375 -11.578125 C 28.769531 -8.710938 27.972656 -6.15625 27.203125 -3.90625 C 26.429688 -1.664062 25.578125 -0.0507812 24.640625 0.9375 Z M 24.640625 0.9375 "/></g></g></g><g fill="#03989e" fill-opacity="1"><g transform="translate(579.852774, 201.355383)"><g><path d="M 10.46875 1.15625 C 9.226562 1.15625 7.984375 0.894531 6.734375 0.375 C 5.492188 -0.132812 4.4375 -0.722656 3.5625 -1.390625 C 2.269531 -2.472656 1.484375 -3.546875 1.203125 -4.609375 C 0.921875 -5.671875 0.78125 -6.820312 0.78125 -8.0625 C 0.78125 -10.175781 1.269531 -12.226562 2.25 -14.21875 C 3.226562 -16.207031 4.492188 -17.976562 6.046875 -19.53125 C 7.597656 -21.082031 9.195312 -22.304688 10.84375 -23.203125 C 12.5 -24.109375 14.023438 -24.5625 15.421875 -24.5625 C 16.296875 -24.5625 17.125 -24.332031 17.90625 -23.875 C 18.519531 -23.507812 18.96875 -23.109375 19.25 -22.671875 C 19.539062 -22.234375 19.738281 -21.675781 19.84375 -21 C 19.894531 -20.789062 19.921875 -20.582031 19.921875 -20.375 C 19.921875 -20.175781 19.921875 -19.945312 19.921875 -19.6875 C 19.921875 -19.164062 19.878906 -18.59375 19.796875 -17.96875 C 19.722656 -17.351562 19.554688 -16.710938 19.296875 -16.046875 C 18.773438 -14.441406 17.851562 -12.875 16.53125 -11.34375 C 15.21875 -9.820312 13.554688 -8.859375 11.546875 -8.453125 C 11.335938 -8.398438 11.003906 -8.375 10.546875 -8.375 C 9.867188 -8.375 9.101562 -8.488281 8.25 -8.71875 C 7.394531 -8.945312 6.632812 -9.269531 5.96875 -9.6875 C 5.601562 -8.550781 5.429688 -7.453125 5.453125 -6.390625 C 5.484375 -5.335938 5.8125 -4.445312 6.4375 -3.71875 C 7.050781 -3.050781 8.132812 -2.71875 9.6875 -2.71875 C 11.644531 -2.71875 13.90625 -3.21875 16.46875 -4.21875 C 19.03125 -5.226562 21.578125 -7 24.109375 -9.53125 C 24.359375 -9.789062 24.40625 -9.378906 24.25 -8.296875 C 24.101562 -7.210938 23.457031 -6 22.3125 -4.65625 C 21.019531 -3.101562 19.25 -1.742188 17 -0.578125 C 14.757812 0.578125 12.582031 1.15625 10.46875 1.15625 Z M 7.75 -12.9375 C 8.46875 -12.582031 9.160156 -12.609375 9.828125 -13.015625 C 10.503906 -13.429688 11.078125 -13.847656 11.546875 -14.265625 C 11.753906 -14.421875 12.128906 -14.769531 12.671875 -15.3125 C 13.210938 -15.851562 13.789062 -16.472656 14.40625 -17.171875 C 15.03125 -17.867188 15.535156 -18.523438 15.921875 -19.140625 C 16.304688 -19.765625 16.425781 -20.203125 16.28125 -20.453125 C 16.125 -20.710938 15.707031 -20.660156 15.03125 -20.296875 C 14.363281 -19.941406 13.5625 -19.363281 12.625 -18.5625 C 11.695312 -17.757812 10.796875 -16.867188 9.921875 -15.890625 C 9.046875 -14.910156 8.320312 -13.925781 7.75 -12.9375 Z M 7.75 -12.9375 "/></g></g></g><g fill="#03989e" fill-opacity="1"><g transform="translate(602.394477, 201.355383)"><g><path d="M 23.796875 1.625 C 21.566406 1.832031 19.664062 1.132812 18.09375 -0.46875 C 16.519531 -2.070312 15.601562 -4.316406 15.34375 -7.203125 C 12.914062 -4.566406 10.734375 -2.734375 8.796875 -1.703125 C 6.859375 -0.671875 5.21875 -0.207031 3.875 -0.3125 C 1.8125 -0.570312 0.457031 -1.359375 -0.1875 -2.671875 C -0.832031 -3.992188 -0.921875 -5.625 -0.453125 -7.5625 C 0.00390625 -9.5 0.828125 -11.5 2.015625 -13.5625 C 3.203125 -15.625 4.597656 -17.507812 6.203125 -19.21875 C 7.441406 -20.613281 8.832031 -21.789062 10.375 -22.75 C 11.925781 -23.707031 13.503906 -24.285156 15.109375 -24.484375 C 16.710938 -24.691406 18.210938 -24.304688 19.609375 -23.328125 C 20.078125 -24.046875 20.707031 -24.289062 21.5 -24.0625 C 22.300781 -23.832031 22.882812 -23.585938 23.25 -23.328125 C 23.96875 -22.960938 24.492188 -22.519531 24.828125 -22 C 25.171875 -21.488281 25.210938 -20.972656 24.953125 -20.453125 C 24.285156 -19.210938 23.5625 -17.660156 22.78125 -15.796875 C 22.007812 -13.941406 21.351562 -12.070312 20.8125 -10.1875 C 20.269531 -8.300781 20 -6.632812 20 -5.1875 C 20 -4.363281 20.175781 -3.664062 20.53125 -3.09375 C 20.894531 -2.53125 21.566406 -2.273438 22.546875 -2.328125 C 23.835938 -2.429688 25.191406 -2.878906 26.609375 -3.671875 C 28.035156 -4.472656 29.289062 -5.300781 30.375 -6.15625 C 31.457031 -7.007812 32.179688 -7.515625 32.546875 -7.671875 C 33.015625 -8.035156 33.179688 -7.972656 33.046875 -7.484375 C 32.921875 -6.992188 32.570312 -6.28125 32 -5.34375 C 31.4375 -4.414062 30.710938 -3.4375 29.828125 -2.40625 C 28.953125 -1.375 28 -0.472656 26.96875 0.296875 C 25.9375 1.078125 24.878906 1.519531 23.796875 1.625 Z M 4.1875 -5.5 C 3.925781 -4.675781 4.050781 -4.328125 4.5625 -4.453125 C 5.082031 -4.585938 5.847656 -5.039062 6.859375 -5.8125 C 7.867188 -6.582031 8.953125 -7.5625 10.109375 -8.75 C 11.273438 -9.945312 12.398438 -11.203125 13.484375 -12.515625 C 14.566406 -13.835938 15.457031 -15.078125 16.15625 -16.234375 C 16.851562 -17.398438 17.203125 -18.34375 17.203125 -19.0625 C 16.691406 -19.582031 15.878906 -19.546875 14.765625 -18.953125 C 13.648438 -18.359375 12.421875 -17.390625 11.078125 -16.046875 C 9.734375 -14.703125 8.441406 -13.113281 7.203125 -11.28125 C 5.960938 -9.445312 4.957031 -7.519531 4.1875 -5.5 Z M 4.1875 -5.5 "/></g></g></g><g fill="#03989e" fill-opacity="1"><g transform="translate(633.301856, 201.355383)"><g><path d="M 12.484375 1.703125 C 11.648438 1.703125 10.640625 1.597656 9.453125 1.390625 C 8.265625 1.179688 7.078125 0.742188 5.890625 0.078125 C 4.285156 -0.898438 3.273438 -2.242188 2.859375 -3.953125 C 2.453125 -5.660156 2.25 -7.46875 2.25 -9.375 C 2.25 -11.644531 2.554688 -14.019531 3.171875 -16.5 C 3.796875 -18.988281 4.441406 -21.34375 5.109375 -23.5625 C 5.679688 -25.46875 6.367188 -27.414062 7.171875 -29.40625 C 7.972656 -31.394531 8.785156 -33.320312 9.609375 -35.1875 C 10.585938 -37.300781 11.53125 -39.171875 12.4375 -40.796875 C 13.34375 -42.429688 14.441406 -44.175781 15.734375 -46.03125 C 16.398438 -47.007812 17.066406 -47.875 17.734375 -48.625 C 18.410156 -49.375 19.367188 -49.957031 20.609375 -50.375 C 20.816406 -50.476562 21.035156 -50.53125 21.265625 -50.53125 C 21.503906 -50.53125 21.726562 -50.53125 21.9375 -50.53125 C 22.8125 -50.53125 23.703125 -50.347656 24.609375 -49.984375 C 25.515625 -49.617188 26.300781 -49.101562 26.96875 -48.4375 C 27.644531 -47.769531 27.984375 -46.941406 27.984375 -45.953125 C 28.035156 -44.148438 27.878906 -42.265625 27.515625 -40.296875 C 27.148438 -38.335938 26.554688 -36.375 25.734375 -34.40625 C 24.703125 -31.925781 23.550781 -29.5 22.28125 -27.125 C 21.007812 -24.75 19.628906 -22.425781 18.140625 -20.15625 C 17.617188 -19.320312 16.800781 -18.09375 15.6875 -16.46875 C 14.582031 -14.84375 13.304688 -13.175781 11.859375 -11.46875 C 10.410156 -9.757812 8.882812 -8.335938 7.28125 -7.203125 C 7.28125 -6.742188 7.34375 -6.085938 7.46875 -5.234375 C 7.601562 -4.378906 7.976562 -3.601562 8.59375 -2.90625 C 9.21875 -2.207031 10.203125 -1.859375 11.546875 -1.859375 C 13.097656 -1.859375 14.660156 -2.285156 16.234375 -3.140625 C 17.804688 -3.992188 19.0625 -4.832031 20 -5.65625 C 21.289062 -6.738281 22.140625 -7.515625 22.546875 -7.984375 C 22.960938 -8.453125 23.25 -8.398438 23.40625 -7.828125 C 23.507812 -7.410156 23.316406 -6.632812 22.828125 -5.5 C 22.335938 -4.363281 21.726562 -3.4375 21 -2.71875 C 20.019531 -1.726562 18.753906 -0.742188 17.203125 0.234375 C 15.648438 1.210938 14.078125 1.703125 12.484375 1.703125 Z M 7.515625 -12.5625 C 8.703125 -13.894531 9.695312 -15.09375 10.5 -16.15625 C 11.300781 -17.21875 12.007812 -18.1875 12.625 -19.0625 C 13.613281 -20.40625 14.597656 -21.890625 15.578125 -23.515625 C 16.554688 -25.148438 17.382812 -26.710938 18.0625 -28.203125 C 19.195312 -30.640625 20.367188 -33.195312 21.578125 -35.875 C 22.796875 -38.5625 23.585938 -41.40625 23.953125 -44.40625 C 24.003906 -44.5625 24.03125 -44.71875 24.03125 -44.875 C 24.03125 -45.03125 24.03125 -45.160156 24.03125 -45.265625 C 24.03125 -45.929688 23.875 -46.265625 23.5625 -46.265625 C 23.09375 -46.265625 22.367188 -45.515625 21.390625 -44.015625 C 20.410156 -42.515625 19.300781 -40.613281 18.0625 -38.3125 C 16.820312 -36.019531 15.59375 -33.59375 14.375 -31.03125 C 13.164062 -28.476562 12.117188 -26.117188 11.234375 -23.953125 C 10.566406 -22.347656 9.894531 -20.578125 9.21875 -18.640625 C 8.550781 -16.703125 7.984375 -14.675781 7.515625 -12.5625 Z M 7.515625 -12.5625 "/></g></g></g><g fill="#03989e" fill-opacity="1"><g transform="translate(656.38578, 201.355383)"><g><path d="M 3.71875 0.9375 C 3.25 0.882812 2.769531 0.710938 2.28125 0.421875 C 1.789062 0.140625 1.390625 -0.332031 1.078125 -1 C 0.878906 -1.3125 0.753906 -1.710938 0.703125 -2.203125 C 0.648438 -2.691406 0.648438 -3.222656 0.703125 -3.796875 C 0.804688 -5.660156 1.203125 -7.882812 1.890625 -10.46875 C 2.585938 -13.050781 3.378906 -15.453125 4.265625 -17.671875 C 4.054688 -17.722656 3.769531 -17.722656 3.40625 -17.671875 C 3.050781 -17.617188 2.71875 -17.59375 2.40625 -17.59375 C 1.726562 -17.59375 1.273438 -17.742188 1.046875 -18.046875 C 0.816406 -18.359375 0.703125 -18.828125 0.703125 -19.453125 C 0.703125 -20.484375 0.867188 -21.164062 1.203125 -21.5 C 1.535156 -21.84375 2.085938 -22.050781 2.859375 -22.125 C 3.640625 -22.207031 4.675781 -22.375 5.96875 -22.625 C 6.488281 -23.863281 6.890625 -24.867188 7.171875 -25.640625 C 7.453125 -26.421875 7.929688 -27.613281 8.609375 -29.21875 L 12.09375 -37.4375 C 12.300781 -38 12.582031 -38.691406 12.9375 -39.515625 C 13.300781 -40.347656 13.6875 -41.113281 14.09375 -41.8125 C 14.507812 -42.507812 14.847656 -42.910156 15.109375 -43.015625 C 15.421875 -43.117188 15.65625 -43.171875 15.8125 -43.171875 C 16.425781 -43.171875 17.003906 -42.960938 17.546875 -42.546875 C 18.097656 -42.128906 18.539062 -41.660156 18.875 -41.140625 C 19.207031 -40.628906 19.296875 -40.191406 19.140625 -39.828125 C 18.828125 -39.003906 18.410156 -38 17.890625 -36.8125 C 17.378906 -35.625 16.863281 -34.4375 16.34375 -33.25 C 15.832031 -32.0625 15.394531 -31.023438 15.03125 -30.140625 C 14.71875 -29.472656 14.273438 -28.46875 13.703125 -27.125 C 13.140625 -25.78125 12.578125 -24.359375 12.015625 -22.859375 C 12.785156 -22.859375 13.503906 -22.894531 14.171875 -22.96875 C 14.847656 -23.050781 15.601562 -23.117188 16.4375 -23.171875 C 17.625 -23.222656 18.664062 -23.285156 19.5625 -23.359375 C 20.46875 -23.441406 21.460938 -23.484375 22.546875 -23.484375 C 23.273438 -23.484375 23.546875 -23.273438 23.359375 -22.859375 C 23.179688 -22.453125 22.726562 -21.960938 22 -21.390625 C 21.28125 -20.816406 20.40625 -20.285156 19.375 -19.796875 C 18.34375 -19.304688 17.335938 -18.984375 16.359375 -18.828125 C 15.210938 -18.617188 14.132812 -18.453125 13.125 -18.328125 C 12.125 -18.203125 11.109375 -18.035156 10.078125 -17.828125 C 9.867188 -17.460938 9.554688 -16.738281 9.140625 -15.65625 C 8.734375 -14.570312 8.304688 -13.382812 7.859375 -12.09375 C 7.421875 -10.800781 7.050781 -9.640625 6.75 -8.609375 C 6.539062 -7.671875 6.289062 -6.632812 6 -5.5 C 5.71875 -4.363281 5.523438 -3.253906 5.421875 -2.171875 C 5.367188 -1.804688 5.378906 -1.441406 5.453125 -1.078125 C 5.535156 -0.722656 5.578125 -0.390625 5.578125 -0.078125 C 5.523438 0.285156 5.304688 0.554688 4.921875 0.734375 C 4.535156 0.910156 4.132812 0.976562 3.71875 0.9375 Z M 3.71875 0.9375 "/></g></g></g><g fill="#03989e" fill-opacity="1"><g transform="translate(675.984026, 201.355383)"><g><path d="M 26.8125 0.9375 C 25.0625 0.9375 23.4375 0.289062 21.9375 -1 C 20.4375 -2.289062 19.6875 -4.128906 19.6875 -6.515625 C 19.6875 -8.003906 19.851562 -9.753906 20.1875 -11.765625 C 20.519531 -13.785156 20.894531 -16.0625 21.3125 -18.59375 C 19.96875 -17.300781 18.828125 -16.175781 17.890625 -15.21875 C 16.960938 -14.269531 16.097656 -13.289062 15.296875 -12.28125 C 14.503906 -11.269531 13.679688 -10.128906 12.828125 -8.859375 C 11.972656 -7.597656 10.953125 -6.015625 9.765625 -4.109375 C 9.085938 -3.078125 8.503906 -2.1875 8.015625 -1.4375 C 7.523438 -0.6875 6.867188 -0.234375 6.046875 -0.078125 C 5.941406 -0.0234375 5.8125 0 5.65625 0 C 5.5 0 5.367188 0 5.265625 0 C 3.867188 0 2.804688 -0.382812 2.078125 -1.15625 C 1.359375 -1.9375 1 -2.738281 1 -3.5625 C 1 -7.957031 2.914062 -15.21875 6.75 -25.34375 C 7.46875 -27.25 8.289062 -29.414062 9.21875 -31.84375 C 10.15625 -34.28125 11.125 -36.738281 12.125 -39.21875 C 13.132812 -41.695312 14.128906 -43.984375 15.109375 -46.078125 C 16.085938 -48.171875 16.988281 -49.847656 17.8125 -51.109375 C 18.644531 -52.378906 19.347656 -53.015625 19.921875 -53.015625 C 20.847656 -53.015625 21.617188 -52.753906 22.234375 -52.234375 C 22.859375 -51.710938 23.171875 -51.144531 23.171875 -50.53125 C 23.171875 -49.757812 22.976562 -48.945312 22.59375 -48.09375 C 22.207031 -47.238281 21.859375 -46.523438 21.546875 -45.953125 C 20.972656 -44.921875 20.25 -43.445312 19.375 -41.53125 C 18.5 -39.625 17.554688 -37.484375 16.546875 -35.109375 C 15.535156 -32.734375 14.550781 -30.28125 13.59375 -27.75 C 12.644531 -25.21875 11.769531 -22.800781 10.96875 -20.5 C 10.164062 -18.195312 9.53125 -16.191406 9.0625 -14.484375 C 8.601562 -12.785156 8.375 -11.546875 8.375 -10.765625 C 9.769531 -13.046875 11.28125 -15.179688 12.90625 -17.171875 C 14.53125 -19.160156 16.144531 -20.785156 17.75 -22.046875 C 19.351562 -23.316406 20.800781 -23.953125 22.09375 -23.953125 C 22.757812 -23.953125 23.492188 -23.628906 24.296875 -22.984375 C 25.097656 -22.335938 25.78125 -21.570312 26.34375 -20.6875 C 26.914062 -19.8125 27.226562 -19.015625 27.28125 -18.296875 C 27.382812 -17.253906 27.28125 -16.035156 26.96875 -14.640625 C 26.65625 -13.253906 26.34375 -11.796875 26.03125 -10.265625 C 25.726562 -8.742188 25.578125 -7.3125 25.578125 -5.96875 C 25.578125 -4.101562 26.195312 -3.171875 27.4375 -3.171875 C 27.539062 -3.171875 27.671875 -3.171875 27.828125 -3.171875 C 27.984375 -3.171875 28.132812 -3.195312 28.28125 -3.25 C 29.46875 -3.5625 30.65625 -4.171875 31.84375 -5.078125 C 33.039062 -5.984375 34.078125 -6.882812 34.953125 -7.78125 C 35.828125 -8.6875 36.394531 -9.242188 36.65625 -9.453125 C 36.96875 -9.765625 37.175781 -9.921875 37.28125 -9.921875 C 37.539062 -9.921875 37.460938 -9.441406 37.046875 -8.484375 C 36.628906 -7.523438 35.984375 -6.375 35.109375 -5.03125 C 34.234375 -3.6875 33.210938 -2.457031 32.046875 -1.34375 C 30.878906 -0.238281 29.648438 0.46875 28.359375 0.78125 C 28.160156 0.832031 27.914062 0.867188 27.625 0.890625 C 27.34375 0.921875 27.070312 0.9375 26.8125 0.9375 Z M 26.8125 0.9375 "/></g></g></g><g fill="#03989e" fill-opacity="1"><g transform="translate(710.53202, 201.355383)"><g><path d="M 9.609375 1.15625 C 8.367188 1.15625 7.164062 0.972656 6 0.609375 C 4.84375 0.253906 3.875 -0.304688 3.09375 -1.078125 C 2.164062 -2.066406 1.492188 -3.128906 1.078125 -4.265625 C 0.671875 -5.398438 0.46875 -6.5625 0.46875 -7.75 C 0.46875 -9.613281 0.828125 -11.445312 1.546875 -13.25 C 2.273438 -15.0625 3.179688 -16.710938 4.265625 -18.203125 C 5.347656 -19.703125 6.40625 -20.945312 7.4375 -21.9375 C 8.3125 -22.707031 9.1875 -23.363281 10.0625 -23.90625 C 10.945312 -24.445312 11.878906 -24.71875 12.859375 -24.71875 C 14.097656 -24.71875 15.3125 -24.203125 16.5 -23.171875 C 17.019531 -22.703125 17.484375 -22.082031 17.890625 -21.3125 C 18.304688 -20.539062 18.515625 -19.867188 18.515625 -19.296875 C 18.515625 -18.367188 18 -17.90625 16.96875 -17.90625 C 16.8125 -17.90625 16.644531 -17.914062 16.46875 -17.9375 C 16.289062 -17.96875 16.097656 -18.007812 15.890625 -18.0625 C 15.210938 -18.164062 14.757812 -18.332031 14.53125 -18.5625 C 14.300781 -18.789062 14.054688 -18.90625 13.796875 -18.90625 C 13.484375 -18.90625 12.992188 -18.703125 12.328125 -18.296875 C 11.597656 -17.828125 10.921875 -17.164062 10.296875 -16.3125 C 9.679688 -15.457031 9.117188 -14.671875 8.609375 -13.953125 C 7.773438 -12.816406 6.96875 -11.523438 6.1875 -10.078125 C 5.414062 -8.628906 5.03125 -7.234375 5.03125 -5.890625 C 5.03125 -5.015625 5.265625 -4.265625 5.734375 -3.640625 C 6.097656 -3.222656 6.484375 -2.960938 6.890625 -2.859375 C 7.304688 -2.765625 7.695312 -2.71875 8.0625 -2.71875 C 9.613281 -2.71875 11.238281 -3.066406 12.9375 -3.765625 C 14.644531 -4.460938 16.320312 -5.3125 17.96875 -6.3125 C 19.625 -7.320312 21.125 -8.289062 22.46875 -9.21875 C 22.675781 -9.269531 22.78125 -9.09375 22.78125 -8.6875 C 22.78125 -8.320312 22.625 -7.722656 22.3125 -6.890625 C 22.007812 -6.066406 21.46875 -5.21875 20.6875 -4.34375 C 20.019531 -3.5625 19.269531 -2.875 18.4375 -2.28125 C 17.613281 -1.6875 16.738281 -1.082031 15.8125 -0.46875 C 14.15625 0.613281 12.085938 1.15625 9.609375 1.15625 Z M 9.609375 1.15625 "/></g></g></g><g fill="#03989e" fill-opacity="1"><g transform="translate(731.601994, 201.355383)"><g><path d="M 23.796875 1.625 C 21.566406 1.832031 19.664062 1.132812 18.09375 -0.46875 C 16.519531 -2.070312 15.601562 -4.316406 15.34375 -7.203125 C 12.914062 -4.566406 10.734375 -2.734375 8.796875 -1.703125 C 6.859375 -0.671875 5.21875 -0.207031 3.875 -0.3125 C 1.8125 -0.570312 0.457031 -1.359375 -0.1875 -2.671875 C -0.832031 -3.992188 -0.921875 -5.625 -0.453125 -7.5625 C 0.00390625 -9.5 0.828125 -11.5 2.015625 -13.5625 C 3.203125 -15.625 4.597656 -17.507812 6.203125 -19.21875 C 7.441406 -20.613281 8.832031 -21.789062 10.375 -22.75 C 11.925781 -23.707031 13.503906 -24.285156 15.109375 -24.484375 C 16.710938 -24.691406 18.210938 -24.304688 19.609375 -23.328125 C 20.078125 -24.046875 20.707031 -24.289062 21.5 -24.0625 C 22.300781 -23.832031 22.882812 -23.585938 23.25 -23.328125 C 23.96875 -22.960938 24.492188 -22.519531 24.828125 -22 C 25.171875 -21.488281 25.210938 -20.972656 24.953125 -20.453125 C 24.285156 -19.210938 23.5625 -17.660156 22.78125 -15.796875 C 22.007812 -13.941406 21.351562 -12.070312 20.8125 -10.1875 C 20.269531 -8.300781 20 -6.632812 20 -5.1875 C 20 -4.363281 20.175781 -3.664062 20.53125 -3.09375 C 20.894531 -2.53125 21.566406 -2.273438 22.546875 -2.328125 C 23.835938 -2.429688 25.191406 -2.878906 26.609375 -3.671875 C 28.035156 -4.472656 29.289062 -5.300781 30.375 -6.15625 C 31.457031 -7.007812 32.179688 -7.515625 32.546875 -7.671875 C 33.015625 -8.035156 33.179688 -7.972656 33.046875 -7.484375 C 32.921875 -6.992188 32.570312 -6.28125 32 -5.34375 C 31.4375 -4.414062 30.710938 -3.4375 29.828125 -2.40625 C 28.953125 -1.375 28 -0.472656 26.96875 0.296875 C 25.9375 1.078125 24.878906 1.519531 23.796875 1.625 Z M 4.1875 -5.5 C 3.925781 -4.675781 4.050781 -4.328125 4.5625 -4.453125 C 5.082031 -4.585938 5.847656 -5.039062 6.859375 -5.8125 C 7.867188 -6.582031 8.953125 -7.5625 10.109375 -8.75 C 11.273438 -9.945312 12.398438 -11.203125 13.484375 -12.515625 C 14.566406 -13.835938 15.457031 -15.078125 16.15625 -16.234375 C 16.851562 -17.398438 17.203125 -18.34375 17.203125 -19.0625 C 16.691406 -19.582031 15.878906 -19.546875 14.765625 -18.953125 C 13.648438 -18.359375 12.421875 -17.390625 11.078125 -16.046875 C 9.734375 -14.703125 8.441406 -13.113281 7.203125 -11.28125 C 5.960938 -9.445312 4.957031 -7.519531 4.1875 -5.5 Z M 4.1875 -5.5 "/></g></g></g><g fill="#03989e" fill-opacity="1"><g transform="translate(762.50935, 201.355383)"><g><path d="M 5.1875 1 C 3.28125 1 2.082031 0.765625 1.59375 0.296875 C 1.101562 -0.160156 0.859375 -0.722656 0.859375 -1.390625 C 0.859375 -1.859375 1 -2.695312 1.28125 -3.90625 C 1.5625 -5.125 1.867188 -6.363281 2.203125 -7.625 C 2.546875 -8.894531 2.789062 -9.867188 2.9375 -10.546875 C 3.769531 -14.054688 4.492188 -16.816406 5.109375 -18.828125 C 5.734375 -20.847656 6.265625 -22.320312 6.703125 -23.25 C 7.140625 -24.175781 7.523438 -24.753906 7.859375 -24.984375 C 8.203125 -25.222656 8.5 -25.289062 8.75 -25.1875 C 10.507812 -24.519531 11.53125 -23.953125 11.8125 -23.484375 C 12.101562 -23.015625 12.195312 -22.472656 12.09375 -21.859375 C 11.832031 -20.304688 10.898438 -17.4375 9.296875 -13.25 C 10.328125 -15.164062 11.539062 -16.972656 12.9375 -18.671875 C 14.332031 -20.378906 15.726562 -21.828125 17.125 -23.015625 C 17.957031 -23.742188 18.835938 -23.925781 19.765625 -23.5625 C 20.691406 -23.195312 21.335938 -22.421875 21.703125 -21.234375 C 22.160156 -19.835938 22.632812 -18.765625 23.125 -18.015625 C 23.625 -17.265625 24.363281 -16.453125 25.34375 -15.578125 C 25.550781 -15.472656 25.523438 -15.210938 25.265625 -14.796875 C 25.003906 -14.390625 24.65625 -14.015625 24.21875 -13.671875 C 23.78125 -13.335938 23.351562 -13.171875 22.9375 -13.171875 C 21.644531 -13.171875 20.609375 -13.554688 19.828125 -14.328125 C 19.054688 -15.109375 18.3125 -16.300781 17.59375 -17.90625 C 16.96875 -17.539062 16.226562 -16.878906 15.375 -15.921875 C 14.53125 -14.972656 13.71875 -13.976562 12.9375 -12.9375 C 12.164062 -11.90625 11.570312 -11.003906 11.15625 -10.234375 C 10.644531 -9.242188 10.128906 -8.21875 9.609375 -7.15625 C 9.085938 -6.101562 8.625 -5.113281 8.21875 -4.1875 C 8.007812 -3.613281 7.710938 -2.914062 7.328125 -2.09375 C 6.941406 -1.269531 6.566406 -0.550781 6.203125 0.0625 C 5.835938 0.6875 5.5 1 5.1875 1 Z M 5.1875 1 "/></g></g></g><g fill="#03989e" fill-opacity="1"><g transform="translate(787.76214, 201.355383)"><g><path d="M 10.46875 1.15625 C 9.226562 1.15625 7.984375 0.894531 6.734375 0.375 C 5.492188 -0.132812 4.4375 -0.722656 3.5625 -1.390625 C 2.269531 -2.472656 1.484375 -3.546875 1.203125 -4.609375 C 0.921875 -5.671875 0.78125 -6.820312 0.78125 -8.0625 C 0.78125 -10.175781 1.269531 -12.226562 2.25 -14.21875 C 3.226562 -16.207031 4.492188 -17.976562 6.046875 -19.53125 C 7.597656 -21.082031 9.195312 -22.304688 10.84375 -23.203125 C 12.5 -24.109375 14.023438 -24.5625 15.421875 -24.5625 C 16.296875 -24.5625 17.125 -24.332031 17.90625 -23.875 C 18.519531 -23.507812 18.96875 -23.109375 19.25 -22.671875 C 19.539062 -22.234375 19.738281 -21.675781 19.84375 -21 C 19.894531 -20.789062 19.921875 -20.582031 19.921875 -20.375 C 19.921875 -20.175781 19.921875 -19.945312 19.921875 -19.6875 C 19.921875 -19.164062 19.878906 -18.59375 19.796875 -17.96875 C 19.722656 -17.351562 19.554688 -16.710938 19.296875 -16.046875 C 18.773438 -14.441406 17.851562 -12.875 16.53125 -11.34375 C 15.21875 -9.820312 13.554688 -8.859375 11.546875 -8.453125 C 11.335938 -8.398438 11.003906 -8.375 10.546875 -8.375 C 9.867188 -8.375 9.101562 -8.488281 8.25 -8.71875 C 7.394531 -8.945312 6.632812 -9.269531 5.96875 -9.6875 C 5.601562 -8.550781 5.429688 -7.453125 5.453125 -6.390625 C 5.484375 -5.335938 5.8125 -4.445312 6.4375 -3.71875 C 7.050781 -3.050781 8.132812 -2.71875 9.6875 -2.71875 C 11.644531 -2.71875 13.90625 -3.21875 16.46875 -4.21875 C 19.03125 -5.226562 21.578125 -7 24.109375 -9.53125 C 24.359375 -9.789062 24.40625 -9.378906 24.25 -8.296875 C 24.101562 -7.210938 23.457031 -6 22.3125 -4.65625 C 21.019531 -3.101562 19.25 -1.742188 17 -0.578125 C 14.757812 0.578125 12.582031 1.15625 10.46875 1.15625 Z M 7.75 -12.9375 C 8.46875 -12.582031 9.160156 -12.609375 9.828125 -13.015625 C 10.503906 -13.429688 11.078125 -13.847656 11.546875 -14.265625 C 11.753906 -14.421875 12.128906 -14.769531 12.671875 -15.3125 C 13.210938 -15.851562 13.789062 -16.472656 14.40625 -17.171875 C 15.03125 -17.867188 15.535156 -18.523438 15.921875 -19.140625 C 16.304688 -19.765625 16.425781 -20.203125 16.28125 -20.453125 C 16.125 -20.710938 15.707031 -20.660156 15.03125 -20.296875 C 14.363281 -19.941406 13.5625 -19.363281 12.625 -18.5625 C 11.695312 -17.757812 10.796875 -16.867188 9.921875 -15.890625 C 9.046875 -14.910156 8.320312 -13.925781 7.75 -12.9375 Z M 7.75 -12.9375 "/></g></g></g><g fill="#03989e" fill-opacity="1"><g transform="translate(810.303821, 201.355383)"><g/></g></g><g fill="#03989e" fill-opacity="1"><g transform="translate(829.049994, 201.355383)"><g><path d="M 10 4.5 C 8.238281 4.5 6.632812 4.132812 5.1875 3.40625 C 3.789062 2.6875 2.882812 1.640625 2.46875 0.265625 C 2.0625 -1.097656 1.960938 -2.628906 2.171875 -4.328125 C 2.378906 -6.035156 2.726562 -7.769531 3.21875 -9.53125 C 3.707031 -11.289062 4.160156 -12.921875 4.578125 -14.421875 C 5.398438 -17.253906 6.273438 -20.066406 7.203125 -22.859375 C 8.140625 -25.648438 9.070312 -28.441406 10 -31.234375 C 10.5625 -32.890625 11.164062 -34.566406 11.8125 -36.265625 C 12.457031 -37.972656 12.960938 -39.679688 13.328125 -41.390625 C 13.484375 -42.003906 13.535156 -42.828125 13.484375 -43.859375 C 13.429688 -44.898438 13.484375 -45.910156 13.640625 -46.890625 C 13.796875 -47.867188 14.179688 -48.59375 14.796875 -49.0625 C 15.578125 -49.625 16.289062 -49.75 16.9375 -49.4375 C 17.582031 -49.132812 18.132812 -48.632812 18.59375 -47.9375 C 19.0625 -47.238281 19.375 -46.550781 19.53125 -45.875 C 19.789062 -44.84375 19.722656 -43.664062 19.328125 -42.34375 C 18.941406 -41.03125 18.597656 -39.882812 18.296875 -38.90625 C 16.796875 -33.632812 15.164062 -28.53125 13.40625 -23.59375 C 11.644531 -18.664062 9.914062 -13.28125 8.21875 -7.4375 C 8.113281 -7.019531 7.929688 -6.410156 7.671875 -5.609375 C 7.410156 -4.816406 7.226562 -4.019531 7.125 -3.21875 C 7.019531 -2.414062 7.070312 -1.78125 7.28125 -1.3125 C 7.59375 -0.800781 8.082031 -0.546875 8.75 -0.546875 C 9.476562 -0.546875 10.5 -0.722656 11.8125 -1.078125 C 13.132812 -1.441406 14.46875 -1.882812 15.8125 -2.40625 C 16.6875 -2.757812 17.832031 -3.25 19.25 -3.875 C 20.675781 -4.5 22.242188 -5.117188 23.953125 -5.734375 C 24.515625 -5.941406 25.039062 -6.210938 25.53125 -6.546875 C 26.019531 -6.878906 26.421875 -7.070312 26.734375 -7.125 C 27.046875 -7.175781 27.203125 -6.816406 27.203125 -6.046875 C 27.203125 -6.097656 26.773438 -5.679688 25.921875 -4.796875 C 25.066406 -3.921875 23.710938 -2.8125 21.859375 -1.46875 C 19.222656 0.132812 16.9375 1.53125 15 2.71875 C 13.0625 3.90625 11.394531 4.5 10 4.5 Z M 10 4.5 "/></g></g></g><g fill="#03989e" fill-opacity="1"><g transform="translate(854.147869, 201.355383)"><g><path d="M 8.53125 0 C 7.488281 0 6.476562 -0.257812 5.5 -0.78125 C 4.101562 -1.238281 3.132812 -1.984375 2.59375 -3.015625 C 2.050781 -4.054688 1.78125 -5.222656 1.78125 -6.515625 C 1.78125 -8.265625 2.101562 -10.066406 2.75 -11.921875 C 3.394531 -13.785156 4.054688 -15.289062 4.734375 -16.4375 C 5.035156 -17 5.457031 -17.804688 6 -18.859375 C 6.539062 -19.921875 7.160156 -21.019531 7.859375 -22.15625 C 8.554688 -23.300781 9.28125 -24.285156 10.03125 -25.109375 C 10.78125 -25.929688 11.492188 -26.394531 12.171875 -26.5 C 12.734375 -26.550781 13.441406 -26.265625 14.296875 -25.640625 C 15.148438 -25.023438 15.707031 -24.460938 15.96875 -23.953125 C 16.175781 -23.535156 16.304688 -23.207031 16.359375 -22.96875 C 16.410156 -22.738281 16.4375 -22.570312 16.4375 -22.46875 L 16.4375 -22.3125 C 16.4375 -22.21875 16.484375 -22.101562 16.578125 -21.96875 C 16.679688 -21.84375 16.941406 -21.597656 17.359375 -21.234375 C 18.179688 -20.566406 18.992188 -19.972656 19.796875 -19.453125 C 20.597656 -18.929688 21.253906 -18.359375 21.765625 -17.734375 C 22.285156 -17.117188 22.546875 -16.242188 22.546875 -15.109375 C 22.546875 -14.898438 22.546875 -14.71875 22.546875 -14.5625 C 22.546875 -14.414062 22.519531 -14.238281 22.46875 -14.03125 C 22.269531 -12.320312 21.675781 -10.875 20.6875 -9.6875 C 19.707031 -8.5 18.703125 -7.3125 17.671875 -6.125 C 16.429688 -4.726562 15.046875 -3.359375 13.515625 -2.015625 C 11.992188 -0.671875 10.332031 0 8.53125 0 Z M 7.203125 -4.5 C 7.617188 -4.5 8.253906 -4.804688 9.109375 -5.421875 C 9.960938 -6.046875 10.890625 -6.859375 11.890625 -7.859375 C 12.898438 -8.867188 13.859375 -9.90625 14.765625 -10.96875 C 15.671875 -12.03125 16.421875 -13.023438 17.015625 -13.953125 C 17.609375 -14.878906 17.90625 -15.601562 17.90625 -16.125 C 17.90625 -16.476562 17.75 -16.8125 17.4375 -17.125 C 17.4375 -17.125 17.140625 -17.203125 16.546875 -17.359375 C 15.953125 -17.515625 15.289062 -17.628906 14.5625 -17.703125 C 13.84375 -17.785156 13.25 -17.695312 12.78125 -17.4375 C 11.800781 -16.863281 10.960938 -16.035156 10.265625 -14.953125 C 9.566406 -13.867188 9 -12.769531 8.5625 -11.65625 C 8.125 -10.550781 7.773438 -9.632812 7.515625 -8.90625 C 7.304688 -8.289062 7.097656 -7.644531 6.890625 -6.96875 C 6.691406 -6.300781 6.59375 -5.785156 6.59375 -5.421875 C 6.59375 -4.804688 6.796875 -4.5 7.203125 -4.5 Z M 7.203125 -4.5 "/></g></g></g><g fill="#03989e" fill-opacity="1"><g transform="translate(878.548609, 201.355383)"><g><path d="M 9.609375 1.15625 C 8.367188 1.15625 7.164062 0.972656 6 0.609375 C 4.84375 0.253906 3.875 -0.304688 3.09375 -1.078125 C 2.164062 -2.066406 1.492188 -3.128906 1.078125 -4.265625 C 0.671875 -5.398438 0.46875 -6.5625 0.46875 -7.75 C 0.46875 -9.613281 0.828125 -11.445312 1.546875 -13.25 C 2.273438 -15.0625 3.179688 -16.710938 4.265625 -18.203125 C 5.347656 -19.703125 6.40625 -20.945312 7.4375 -21.9375 C 8.3125 -22.707031 9.1875 -23.363281 10.0625 -23.90625 C 10.945312 -24.445312 11.878906 -24.71875 12.859375 -24.71875 C 14.097656 -24.71875 15.3125 -24.203125 16.5 -23.171875 C 17.019531 -22.703125 17.484375 -22.082031 17.890625 -21.3125 C 18.304688 -20.539062 18.515625 -19.867188 18.515625 -19.296875 C 18.515625 -18.367188 18 -17.90625 16.96875 -17.90625 C 16.8125 -17.90625 16.644531 -17.914062 16.46875 -17.9375 C 16.289062 -17.96875 16.097656 -18.007812 15.890625 -18.0625 C 15.210938 -18.164062 14.757812 -18.332031 14.53125 -18.5625 C 14.300781 -18.789062 14.054688 -18.90625 13.796875 -18.90625 C 13.484375 -18.90625 12.992188 -18.703125 12.328125 -18.296875 C 11.597656 -17.828125 10.921875 -17.164062 10.296875 -16.3125 C 9.679688 -15.457031 9.117188 -14.671875 8.609375 -13.953125 C 7.773438 -12.816406 6.96875 -11.523438 6.1875 -10.078125 C 5.414062 -8.628906 5.03125 -7.234375 5.03125 -5.890625 C 5.03125 -5.015625 5.265625 -4.265625 5.734375 -3.640625 C 6.097656 -3.222656 6.484375 -2.960938 6.890625 -2.859375 C 7.304688 -2.765625 7.695312 -2.71875 8.0625 -2.71875 C 9.613281 -2.71875 11.238281 -3.066406 12.9375 -3.765625 C 14.644531 -4.460938 16.320312 -5.3125 17.96875 -6.3125 C 19.625 -7.320312 21.125 -8.289062 22.46875 -9.21875 C 22.675781 -9.269531 22.78125 -9.09375 22.78125 -8.6875 C 22.78125 -8.320312 22.625 -7.722656 22.3125 -6.890625 C 22.007812 -6.066406 21.46875 -5.21875 20.6875 -4.34375 C 20.019531 -3.5625 19.269531 -2.875 18.4375 -2.28125 C 17.613281 -1.6875 16.738281 -1.082031 15.8125 -0.46875 C 14.15625 0.613281 12.085938 1.15625 9.609375 1.15625 Z M 9.609375 1.15625 "/></g></g></g><g fill="#03989e" fill-opacity="1"><g transform="translate(899.618583, 201.355383)"><g><path d="M 23.796875 1.625 C 21.566406 1.832031 19.664062 1.132812 18.09375 -0.46875 C 16.519531 -2.070312 15.601562 -4.316406 15.34375 -7.203125 C 12.914062 -4.566406 10.734375 -2.734375 8.796875 -1.703125 C 6.859375 -0.671875 5.21875 -0.207031 3.875 -0.3125 C 1.8125 -0.570312 0.457031 -1.359375 -0.1875 -2.671875 C -0.832031 -3.992188 -0.921875 -5.625 -0.453125 -7.5625 C 0.00390625 -9.5 0.828125 -11.5 2.015625 -13.5625 C 3.203125 -15.625 4.597656 -17.507812 6.203125 -19.21875 C 7.441406 -20.613281 8.832031 -21.789062 10.375 -22.75 C 11.925781 -23.707031 13.503906 -24.285156 15.109375 -24.484375 C 16.710938 -24.691406 18.210938 -24.304688 19.609375 -23.328125 C 20.078125 -24.046875 20.707031 -24.289062 21.5 -24.0625 C 22.300781 -23.832031 22.882812 -23.585938 23.25 -23.328125 C 23.96875 -22.960938 24.492188 -22.519531 24.828125 -22 C 25.171875 -21.488281 25.210938 -20.972656 24.953125 -20.453125 C 24.285156 -19.210938 23.5625 -17.660156 22.78125 -15.796875 C 22.007812 -13.941406 21.351562 -12.070312 20.8125 -10.1875 C 20.269531 -8.300781 20 -6.632812 20 -5.1875 C 20 -4.363281 20.175781 -3.664062 20.53125 -3.09375 C 20.894531 -2.53125 21.566406 -2.273438 22.546875 -2.328125 C 23.835938 -2.429688 25.191406 -2.878906 26.609375 -3.671875 C 28.035156 -4.472656 29.289062 -5.300781 30.375 -6.15625 C 31.457031 -7.007812 32.179688 -7.515625 32.546875 -7.671875 C 33.015625 -8.035156 33.179688 -7.972656 33.046875 -7.484375 C 32.921875 -6.992188 32.570312 -6.28125 32 -5.34375 C 31.4375 -4.414062 30.710938 -3.4375 29.828125 -2.40625 C 28.953125 -1.375 28 -0.472656 26.96875 0.296875 C 25.9375 1.078125 24.878906 1.519531 23.796875 1.625 Z M 4.1875 -5.5 C 3.925781 -4.675781 4.050781 -4.328125 4.5625 -4.453125 C 5.082031 -4.585938 5.847656 -5.039062 6.859375 -5.8125 C 7.867188 -6.582031 8.953125 -7.5625 10.109375 -8.75 C 11.273438 -9.945312 12.398438 -11.203125 13.484375 -12.515625 C 14.566406 -13.835938 15.457031 -15.078125 16.15625 -16.234375 C 16.851562 -17.398438 17.203125 -18.34375 17.203125 -19.0625 C 16.691406 -19.582031 15.878906 -19.546875 14.765625 -18.953125 C 13.648438 -18.359375 12.421875 -17.390625 11.078125 -16.046875 C 9.734375 -14.703125 8.441406 -13.113281 7.203125 -11.28125 C 5.960938 -9.445312 4.957031 -7.519531 4.1875 -5.5 Z M 4.1875 -5.5 "/></g></g></g><g fill="#03989e" fill-opacity="1"><g transform="translate(930.525939, 201.355383)"><g><path d="M 12.484375 1.703125 C 11.648438 1.703125 10.640625 1.597656 9.453125 1.390625 C 8.265625 1.179688 7.078125 0.742188 5.890625 0.078125 C 4.285156 -0.898438 3.273438 -2.242188 2.859375 -3.953125 C 2.453125 -5.660156 2.25 -7.46875 2.25 -9.375 C 2.25 -11.644531 2.554688 -14.019531 3.171875 -16.5 C 3.796875 -18.988281 4.441406 -21.34375 5.109375 -23.5625 C 5.679688 -25.46875 6.367188 -27.414062 7.171875 -29.40625 C 7.972656 -31.394531 8.785156 -33.320312 9.609375 -35.1875 C 10.585938 -37.300781 11.53125 -39.171875 12.4375 -40.796875 C 13.34375 -42.429688 14.441406 -44.175781 15.734375 -46.03125 C 16.398438 -47.007812 17.066406 -47.875 17.734375 -48.625 C 18.410156 -49.375 19.367188 -49.957031 20.609375 -50.375 C 20.816406 -50.476562 21.035156 -50.53125 21.265625 -50.53125 C 21.503906 -50.53125 21.726562 -50.53125 21.9375 -50.53125 C 22.8125 -50.53125 23.703125 -50.347656 24.609375 -49.984375 C 25.515625 -49.617188 26.300781 -49.101562 26.96875 -48.4375 C 27.644531 -47.769531 27.984375 -46.941406 27.984375 -45.953125 C 28.035156 -44.148438 27.878906 -42.265625 27.515625 -40.296875 C 27.148438 -38.335938 26.554688 -36.375 25.734375 -34.40625 C 24.703125 -31.925781 23.550781 -29.5 22.28125 -27.125 C 21.007812 -24.75 19.628906 -22.425781 18.140625 -20.15625 C 17.617188 -19.320312 16.800781 -18.09375 15.6875 -16.46875 C 14.582031 -14.84375 13.304688 -13.175781 11.859375 -11.46875 C 10.410156 -9.757812 8.882812 -8.335938 7.28125 -7.203125 C 7.28125 -6.742188 7.34375 -6.085938 7.46875 -5.234375 C 7.601562 -4.378906 7.976562 -3.601562 8.59375 -2.90625 C 9.21875 -2.207031 10.203125 -1.859375 11.546875 -1.859375 C 13.097656 -1.859375 14.660156 -2.285156 16.234375 -3.140625 C 17.804688 -3.992188 19.0625 -4.832031 20 -5.65625 C 21.289062 -6.738281 22.140625 -7.515625 22.546875 -7.984375 C 22.960938 -8.453125 23.25 -8.398438 23.40625 -7.828125 C 23.507812 -7.410156 23.316406 -6.632812 22.828125 -5.5 C 22.335938 -4.363281 21.726562 -3.4375 21 -2.71875 C 20.019531 -1.726562 18.753906 -0.742188 17.203125 0.234375 C 15.648438 1.210938 14.078125 1.703125 12.484375 1.703125 Z M 7.515625 -12.5625 C 8.703125 -13.894531 9.695312 -15.09375 10.5 -16.15625 C 11.300781 -17.21875 12.007812 -18.1875 12.625 -19.0625 C 13.613281 -20.40625 14.597656 -21.890625 15.578125 -23.515625 C 16.554688 -25.148438 17.382812 -26.710938 18.0625 -28.203125 C 19.195312 -30.640625 20.367188 -33.195312 21.578125 -35.875 C 22.796875 -38.5625 23.585938 -41.40625 23.953125 -44.40625 C 24.003906 -44.5625 24.03125 -44.71875 24.03125 -44.875 C 24.03125 -45.03125 24.03125 -45.160156 24.03125 -45.265625 C 24.03125 -45.929688 23.875 -46.265625 23.5625 -46.265625 C 23.09375 -46.265625 22.367188 -45.515625 21.390625 -44.015625 C 20.410156 -42.515625 19.300781 -40.613281 18.0625 -38.3125 C 16.820312 -36.019531 15.59375 -33.59375 14.375 -31.03125 C 13.164062 -28.476562 12.117188 -26.117188 11.234375 -23.953125 C 10.566406 -22.347656 9.894531 -20.578125 9.21875 -18.640625 C 8.550781 -16.703125 7.984375 -14.675781 7.515625 -12.5625 Z M 7.515625 -12.5625 "/></g></g></g></svg>